<?xml version="1.0" encoding="utf-8"?>
<svg version="1.1" xmlns="http://www.w3.org/2000/svg" xmlns:xlink="http://www.w3.org/1999/xlink" x="0px" y="0px" viewBox="0 0 174.2 496.3" style="enable-background:new 0 0 1400 980;" xml:space="preserve" width="174.2" height="496.3">
<style type="text/css">
	.st0{fill:#C9D1D0;}
	.st1{opacity:0.3;}
	.st2{fill:#3F3F3F;}
	.st3{fill:#FF1E46;}
	.st4{fill:#6D0F05;}
	.st5{fill:#FFFFFF;}
	.st6{fill:#3F3F3F;stroke:#3F3F3F;stroke-width:8;stroke-linecap:round;stroke-linejoin:round;stroke-miterlimit:10;}
	.st7{fill:none;stroke:#3F3F3F;stroke-width:8;stroke-linecap:round;stroke-linejoin:round;stroke-miterlimit:10;}
	.st8{fill:#FFFFFF;stroke:#6D0F05;stroke-width:8;stroke-linecap:round;stroke-linejoin:round;stroke-miterlimit:10;}
	.st9{fill:none;stroke:#6D0F05;stroke-width:8;stroke-linecap:round;stroke-linejoin:round;stroke-miterlimit:10;}
	.st10{fill:#FF1E46;stroke:#6D0F05;stroke-width:8;stroke-linecap:round;stroke-linejoin:round;stroke-miterlimit:10;}
	.st11{fill:none;stroke:#3F3F3F;stroke-width:5;stroke-miterlimit:10;}
	.st12{fill:#ECBD6B;}
	.st13{fill:none;stroke:#E29367;stroke-width:5;stroke-miterlimit:10;}
	.st14{fill:#E29367;}
	.st15{fill:none;stroke:#3F3F3F;stroke-width:13;stroke-linecap:round;stroke-linejoin:round;stroke-miterlimit:10;}
	.st16{fill:#3F3F3F;stroke:#3F3F3F;stroke-width:7;stroke-linecap:round;stroke-linejoin:round;stroke-miterlimit:10;}
	.st17{fill:none;stroke:#6D0F05;stroke-width:13;stroke-linecap:round;stroke-linejoin:round;stroke-miterlimit:10;}
	.st18{fill:#9B8579;stroke:#6D0F05;stroke-width:7;stroke-linecap:round;stroke-linejoin:round;stroke-miterlimit:10;}
	.st19{fill:#C5E9EF;stroke:#6D0F05;stroke-width:8;stroke-linecap:round;stroke-linejoin:round;stroke-miterlimit:10;}
	.st20{fill:#C5E9EF;}
	.st21{fill:#3CE1E5;}
	.st22{fill:#AA092B;}
	.st23{fill:none;stroke:#3F3F3F;stroke-width:7;stroke-linecap:round;stroke-linejoin:round;stroke-miterlimit:10;}
	.st24{fill:#C5E9EF;stroke:#6D0F05;stroke-width:7;stroke-linecap:round;stroke-linejoin:round;stroke-miterlimit:10;}
	.st25{fill:#9B8579;}
	.st26{fill:none;stroke:#6D0F05;stroke-width:7;stroke-linecap:round;stroke-linejoin:round;stroke-miterlimit:10;}
</style>

<g id="medical_2">
	
	
	
	
	<g>
		<g class="st1">
			<path class="st6" d="M 91.6 496.3 L 91.6 496.3 c -3 0 -5.5 -2.4 -5.5 -5.5 V 252.7 c 0 -3 2.4 -5.5 5.5 -5.5 h 0 c 3 0 5.5 2.4 5.5 5.5 v 238.1 C 97.1 493.8 94.6 496.3 91.6 496.3 z"/>
			<rect x="72.60000000000002" y="374" class="st6" width="38.1" height="29.3"/>
			<path class="st2" d="M 64.4 121.4 c -2.2 0 -4 -1.8 -4 -4 v -86.3 c 0 -2.2 1.8 -4 4 -4 h 54.5 c 2.2 0 4 1.8 4 4 v 86.3 c 0 2.2 -1.8 4 -4 4 H 64.4 z"/>
			<path class="st2" d="M 118.9 31.1 v 86.3 h -54.5 v -86.3 H 118.9 M 118.9 23.1 h -54.5 c -4.4 0 -8 3.6 -8 8 v 86.3 c 0 4.4 3.6 8 8 8 h 54.5 c 4.4 0 8 -3.6 8 -8 v -86.3 C 126.9 26.7 123.3 23.1 118.9 23.1 L 118.9 23.1 z"/>
			<path class="st2" d="M 91.6 385.9 c -33.1 0 -60 -26.9 -60 -60 V 121.4 c 0 -7.1 5.7 -12.8 12.8 -12.8 h 94.5 c 7.1 0 12.8 5.7 12.8 12.8 v 204.5 C 151.6 359 124.7 385.9 91.6 385.9 z"/>
			<path class="st2" d="M 138.8 112.6 c 4.9 0 8.8 3.9 8.8 8.8 v 204.5 c 0 31 -25.1 56 -56 56 h 0 c -31 0 -56 -25.1 -56 -56 V 121.4 c 0 -4.9 3.9 -8.8 8.8 -8.8 H 138.8 M 138.8 104.6 h -94.5 c -9.3 0 -16.8 7.5 -16.8 16.8 v 204.5 c 0 35.3 28.7 64 64 64 s 64 -28.7 64 -64 V 121.4 C 155.6 112.1 148.1 104.6 138.8 104.6 L 138.8 104.6 z"/>
			<path class="st2" d="M 91.6 371.8 L 91.6 371.8 c -27.7 0 -50.1 -22.4 -50.1 -50.1 V 129.2 c 0 -4.4 3.5 -7.9 7.9 -7.9 h 84.5 c 4.4 0 7.9 3.5 7.9 7.9 v 192.4 C 141.7 349.3 119.3 371.8 91.6 371.8 z"/>
			<path class="st2" d="M 17 137.3 c -2.2 0 -4 -1.8 -4 -4 v -41.5 c 0 -2.2 1.8 -4 4 -4 h 149.2 c 2.2 0 4 1.8 4 4 v 41.5 c 0 2.2 -1.8 4 -4 4 H 17 z"/>
			<path class="st2" d="M 166.2 91.8 v 41.5 H 17 v -41.5 H 166.2 M 166.2 83.8 H 17 c -4.4 0 -8 3.6 -8 8 v 41.5 c 0 4.4 3.6 8 8 8 h 149.2 c 4.4 0 8 -3.6 8 -8 v -41.5 C 174.2 87.4 170.6 83.8 166.2 83.8 L 166.2 83.8 z"/>
			<path class="st2" d="M 46.4 50.2 c -2.2 0 -4 -1.8 -4 -4 v -30.2 c 0 -2.2 1.8 -4 4 -4 h 90.4 c 2.2 0 4 1.8 4 4 v 30.2 c 0 2.2 -1.8 4 -4 4 H 46.4 z"/>
			<path class="st2" d="M 136.8 16 v 30.2 h -90.4 v -30.2 H 136.8 M 136.8 8 h -90.4 c -4.4 0 -8 3.6 -8 8 v 30.2 c 0 4.4 3.6 8 8 8 h 90.4 c 4.4 0 8 -3.6 8 -8 v -30.2 C 144.8 11.6 141.2 8 136.8 8 L 136.8 8 z"/>
			<line class="st7" x1="33.10000000000002" y1="181.60000000000002" x2="77.60000000000002" y2="181.60000000000002"/>
			<line class="st7" x1="33.10000000000002" y1="218.89999999999998" x2="77.60000000000002" y2="218.89999999999998"/>
			<line class="st7" x1="33.10000000000002" y1="256.1" x2="77.60000000000002" y2="256.1"/>
			<line class="st7" x1="33.10000000000002" y1="292" x2="77.60000000000002" y2="292"/>
		</g>
		<g>
			<g>
				<path class="st19" d="M 82.6 488.3 L 82.6 488.3 c -3 0 -5.5 -2.4 -5.5 -5.5 V 244.7 c 0 -3 2.4 -5.5 5.5 -5.5 h 0 c 3 0 5.5 2.4 5.5 5.5 v 238.1 C 88.1 485.8 85.6 488.3 82.6 488.3 z"/>
				<rect x="63.60000000000002" y="366" class="st19" width="38.1" height="29.3"/>
				<g>
					<path class="st20" d="M 55.4 113.4 c -2.2 0 -4 -1.8 -4 -4 v -86.3 c 0 -2.2 1.8 -4 4 -4 h 54.5 c 2.2 0 4 1.8 4 4 v 86.3 c 0 2.2 -1.8 4 -4 4 H 55.4 z"/>
					<path class="st4" d="M 109.9 23.1 v 86.3 h -54.5 v -86.3 H 109.9 M 109.9 15.1 h -54.5 c -4.4 0 -8 3.6 -8 8 v 86.3 c 0 4.4 3.6 8 8 8 h 54.5 c 4.4 0 8 -3.6 8 -8 v -86.3 C 117.9 18.7 114.3 15.1 109.9 15.1 L 109.9 15.1 z"/>
				</g>
				<g>
					<path class="st20" d="M 82.6 377.9 c -33.1 0 -60 -26.9 -60 -60 V 113.4 c 0 -7.1 5.7 -12.8 12.8 -12.8 h 94.5 c 7.1 0 12.8 5.7 12.8 12.8 v 204.5 C 142.6 351 115.7 377.9 82.6 377.9 z"/>
					<path class="st4" d="M 129.8 104.6 c 4.9 0 8.8 3.9 8.8 8.8 v 204.5 c 0 31 -25.1 56 -56 56 h 0 c -31 0 -56 -25.1 -56 -56 V 113.4 c 0 -4.9 3.9 -8.8 8.8 -8.8 H 129.8 M 129.8 96.6 h -94.5 c -9.3 0 -16.8 7.5 -16.8 16.8 v 204.5 c 0 35.3 28.7 64 64 64 s 64 -28.7 64 -64 V 113.4 C 146.6 104.1 139.1 96.6 129.8 96.6 L 129.8 96.6 z"/>
				</g>
				<g>
					<path class="st21" d="M 82.6 363.8 L 82.6 363.8 c -27.7 0 -50.1 -22.4 -50.1 -50.1 V 121.2 c 0 -4.4 3.5 -7.9 7.9 -7.9 h 84.5 c 4.4 0 7.9 3.5 7.9 7.9 v 192.4 C 132.7 341.3 110.3 363.8 82.6 363.8 z"/>
				</g>
				<g>
					<path class="st20" d="M 8 129.3 c -2.2 0 -4 -1.8 -4 -4 v -41.5 c 0 -2.2 1.8 -4 4 -4 h 149.2 c 2.2 0 4 1.8 4 4 v 41.5 c 0 2.2 -1.8 4 -4 4 H 8 z"/>
					<path class="st4" d="M 157.2 83.8 v 41.5 H 8 v -41.5 H 157.2 M 157.2 75.8 H 8 c -4.4 0 -8 3.6 -8 8 v 41.5 c 0 4.4 3.6 8 8 8 h 149.2 c 4.4 0 8 -3.6 8 -8 v -41.5 C 165.2 79.4 161.6 75.8 157.2 75.8 L 157.2 75.8 z"/>
				</g>
				<g>
					<path class="st20" d="M 37.4 42.2 c -2.2 0 -4 -1.8 -4 -4 v -30.2 c 0 -2.2 1.8 -4 4 -4 h 90.4 c 2.2 0 4 1.8 4 4 v 30.2 c 0 2.2 -1.8 4 -4 4 H 37.4 z"/>
					<path class="st4" d="M 127.8 8 v 30.2 h -90.4 v -30.2 H 127.8 M 127.8 0 h -90.4 c -4.4 0 -8 3.6 -8 8 v 30.2 c 0 4.4 3.6 8 8 8 h 90.4 c 4.4 0 8 -3.6 8 -8 v -30.2 C 135.8 3.6 132.2 0 127.8 0 L 127.8 0 z"/>
				</g>
				<line class="st9" x1="24.100000000000023" y1="173.60000000000002" x2="68.60000000000002" y2="173.60000000000002"/>
				<line class="st9" x1="24.100000000000023" y1="210.89999999999998" x2="68.60000000000002" y2="210.89999999999998"/>
				<line class="st9" x1="24.100000000000023" y1="248.10000000000002" x2="68.60000000000002" y2="248.10000000000002"/>
				<line class="st9" x1="24.100000000000023" y1="284" x2="68.60000000000002" y2="284"/>
			</g>
		</g>
	</g>
	
	
	
</g>
</svg>