<?xml version="1.0" encoding="utf-8"?>
<!-- Generator: Adobe Illustrator 19.0.0, SVG Export Plug-In . SVG Version: 6.00 Build 0)  -->
<svg version="1.1" id="Layer_1" xmlns="http://www.w3.org/2000/svg" xmlns:xlink="http://www.w3.org/1999/xlink" x="0px" y="0px" viewBox="0 0 345.1 304.5" style="enable-background:new 0 0 1400 980;" xml:space="preserve" width="345.1" height="304.5">
<style type="text/css">
	.st0{fill:#453F76;}
	.st1{fill:#44AA92;}
	.st2{fill:#ED4545;}
	.st3{fill:#FFA161;}
	.st4{fill:#FFCA55;}
	.st5{fill:#FFFFFF;}
	.st6{fill:#D83D3D;}
	.st7{fill:#FFE36E;}
	.st8{fill:#FFD97B;}
	.st9{fill:#36967D;}
	.st10{fill:#FFFDF6;}
	.st11{fill:#FF9045;}
</style>
<g>
	<g>
		<path class="st0" d="M 64.9 78 c 0 -4.4 -3.6 -8 -8 -8 l 0 0 c -4.4 0 -8 3.6 -8 8 v 46 c 0 4.4 3.6 8 8 8 l 0 0 c 4.4 0 8 -3.6 8 -8 V 78 z"/>
		<path class="st3" d="M 23.8 114 H 157.9 v -99 c 0 -6.6 6.4 -12 13 -12 h 123 c 6.6 0 11 5.4 11 12 v 197.8 c 0 6.6 -4.3 12.2 -11 12.2 H 170.9 c -0.4 0 -0.8 -0.1 -1.2 -0.1 c -0.4 0 -0.8 0.1 -1.2 0.1 H 23.8 c -6.6 0 -12.9 -5.6 -12.9 -12.2 v -86.8 C 10.9 119.3 17.2 114 23.8 114 z"/>
		<rect x="177.9" y="36" class="st5" width="108" height="145"/>
		<path class="st2" d="M 315.9 9 c 0 -5 -4 -9 -9 -9 H 157.9 c -5 0 -9 4.1 -9 9 v 1.9 c 0 5 4 9 9 9 H 306.9 c 5 0 9 -4.1 9 -9 V 9 z"/>
		<path class="st2" d="M 23.8 226.5 c 0 11.3 7.5 20.5 16.7 20.5 h 265.7 c 9.2 0 16.7 -9.2 16.7 -20.5 l 0 0 c 0 -11.3 -7.5 -20.5 -16.7 -20.5 H 40.5 C 31.3 206 23.8 215.2 23.8 226.5 L 23.8 226.5 z"/>
		<circle class="st0" cx="236.70000000000002" cy="225.39999999999998" r="79"/>
		<circle class="st5" cx="236.70000000000002" cy="225.39999999999998" r="33.2"/>
		<circle class="st0" cx="78.1" cy="249" r="55.5"/>
		<circle class="st5" cx="78.1" cy="249" r="20.5"/>
		<g>
			<path class="st2" d="M 315.7 228 c 0 -43.6 -35.4 -79.1 -79 -79.1 c -43.6 0 -79 35.5 -79 79.1 c 0 0.6 0 0.9 0 1.9 h -29.6 c 0 -1 0 -1 0 -1.4 c 0 -59.9 48.6 -108.6 108.5 -108.6 c 59.9 0 108.5 48.7 108.5 108.7 c 0 0.4 0 0.3 0 1.3 h -29.6 C 315.6 229 315.7 228.6 315.7 228 z"/>
		</g>
		<g>
			<path class="st2" d="M 138 252.1 c 0 -32.1 -26 -58 -58.2 -58 c -32.1 0 -58.2 25.7 -58.2 57.9 c 0 0.4 0 1 0 1 H 0 c 0 0 0 -0.2 0 -0.5 c 0 -44.1 35.8 -79.7 79.9 -79.7 c 44.1 0 79.9 35.5 79.9 79.6 c 0 0.3 0 0.6 0 0.6 h -21.8 C 138 253 138 252.5 138 252.1 z"/>
		</g>
	</g>
	<rect x="10.899999999999999" y="136" class="st4" width="22" height="40"/>
</g>
</svg>
