<?xml version="1.0" encoding="utf-8"?>
<!-- Generator: Adobe Illustrator 19.0.0, SVG Export Plug-In . SVG Version: 6.00 Build 0)  -->
<svg version="1.1" id="Layer_1" xmlns="http://www.w3.org/2000/svg" xmlns:xlink="http://www.w3.org/1999/xlink" x="0px" y="0px" viewBox="0 0 569.1 298.7" style="enable-background:new 0 0 1400 980;" xml:space="preserve" width="569.1" height="298.7">
<style type="text/css">
	.st0{fill:#453F76;}
	.st1{fill:#44AA92;}
	.st2{fill:#ED4545;}
	.st3{fill:#FFA161;}
	.st4{fill:#FFCA55;}
	.st5{fill:#FFFFFF;}
	.st6{fill:#D83D3D;}
	.st7{fill:#FFE36E;}
	.st8{fill:#FFD97B;}
	.st9{fill:#36967D;}
	.st10{fill:#FFFDF6;}
	.st11{fill:#FF9045;}
</style>
<g>
	<path class="st0" d="M 378 72.7 c 0 -7 -5.8 -12.7 -12.8 -12.7 h -0.6 c -7 0 -12.6 5.6 -12.6 12.7 v 79.8 c 0 7 5.6 12.5 12.6 12.5 h 0.6 c 7 0 12.8 -5.5 12.8 -12.5 V 72.7 z"/>
	<path class="st0" d="M 400 187.2 c 0 -6.7 -5.8 -12.2 -12.5 -12.2 H 25.2 c -6.7 0 -12.2 5.5 -12.2 12.2 v 0.7 c 0 6.7 5.5 12.1 12.2 12.1 h 362.3 c 6.7 0 12.5 -5.4 12.5 -12.1 V 187.2 z"/>
	<g>
		<path class="st1" d="M 375 114 h 143.8 c 20.1 0 35.2 16.3 35.2 36.5 V 200 H 375 V 114 z"/>
	</g>
	<path class="st1" d="M 499 124 v -80.4 c 0 -6.7 -5.1 -11.6 -11.8 -11.6 h -99.6 c -6.7 0 -12.6 4.9 -12.6 11.6 V 175"/>
	<path class="st2" d="M 569 212.8 c 0 -7 -5.7 -12.8 -12.8 -12.8 H 12.8 c -7 0 -12.8 5.7 -12.8 12.8 v 0.5 c 0 7 5.7 12.8 12.8 12.8 h 543.5 c 7 0 12.8 -5.7 12.8 -12.8 V 212.8 z"/>
	<path class="st3" d="M 359 12.1 c 0 -6.7 -5.4 -12.1 -12.1 -12.1 H 35.1 c -6.7 0 -12.1 5.4 -12.1 12.1 v 150.7 c 0 6.7 5.4 12.1 12.1 12.1 h 311.7 c 6.7 0 12.1 -5.4 12.1 -12.1 V 12.1 z"/>
	<rect x="23" y="32" class="st4" width="334" height="46"/>
	<rect x="23" y="99" class="st4" width="334" height="47"/>
	<path class="st5" d="M 482 60.6 c 0 -6.7 -5.9 -12.6 -12.6 -12.6 h -68 c -6.7 0 -11.4 5.9 -11.4 12.6 v 41.3 c 0 6.7 4.7 12.1 11.4 12.1 h 68 c 6.7 0 12.6 -5.4 12.6 -12.1 V 60.6 z"/>
	<rect x="533" y="153" class="st3" width="21" height="47"/>
	<circle class="st0" cx="447.1" cy="235.5" r="55.9"/>
	<circle class="st5" cx="447.1" cy="235.5" r="20.7"/>
	<g>
		<path class="st2" d="M 507.5 238.8 c 0 -32.4 -26.2 -58.5 -58.6 -58.5 c -32.4 0 -58.6 26.1 -58.6 58.5 c 0 0.4 0 1.2 0 1.2 h -21.9 c 0 0 0 -0.4 0 -0.7 c 0 -44.5 36 -80.4 80.5 -80.4 c 44.5 0 80.5 35.9 80.5 80.4 c 0 0.3 0 0.8 0 0.8 h -21.9 C 507.5 240 507.5 239.3 507.5 238.8 z"/>
	</g>
	<circle class="st0" cx="114.30000000000001" cy="242.79999999999995" r="55.9"/>
	<circle class="st5" cx="114.30000000000001" cy="242.79999999999995" r="20.7"/>
	<g>
		<path class="st2" d="M 174.7 246.5 c 0 -32.4 -26.2 -58.7 -58.6 -58.7 c -32.4 0 -58.6 26.4 -58.6 58.7 c 0 0.4 0 1.5 0 1.5 h -21.9 c 0 0 0 -0.8 0 -1.1 c 0 -44.5 36 -80.6 80.5 -80.6 c 44.5 0 80.5 36.2 80.5 80.6 c 0 0.3 0 1 0 1 h -21.9 C 174.7 248 174.7 246.9 174.7 246.5 z"/>
	</g>
</g>
</svg>
