<?xml version="1.0" encoding="UTF-8"?>
<svg xmlns="http://www.w3.org/2000/svg" xmlns:xlink="http://www.w3.org/1999/xlink" width="623.179687" height="535.019531" viewBox="0 0 623.179687 535.019531">


































<path fill-rule="evenodd" fill="rgb(97.65625%, 90.625%, 0%)" fill-opacity="1" d="M 221.339843 108.449219 C 124.480469 182.878906 152.199219 278.300781 154.75 307.230469 C 167.648437 453.550781 318.148437 531.53125 451.039062 524.398437 C 473.28125 523.210937 519.941406 535.019531 538.691406 521.359375 C 553.53125 510.539062 572.621093 436.660156 578.238281 418.238281 C 623.179687 271.089843 535.589843 104.007812 381.980469 70.320312 C 336.929687 60.429687 291.53125 54.507812 221.339843 108.449219"/>
<path fill-rule="evenodd" fill="rgb(92.1875%, 84.568787%, 8.398438%)" fill-opacity="1" d="M 207.210937 334.480469 C 210.917969 373.941406 247.539062 424.019531 273.160156 451.5 C 300.328125 480.640625 340.359375 492.847656 378.398437 499.648437 C 408.210937 504.980469 438.167969 507.429687 468.339843 509.480469 C 526.160156 513.398437 541.019531 495.941406 555.191406 439.519531 C 574.539062 362.460937 563.839843 274.140625 524.910156 204.800781 C 519.769531 195.640625 478.449219 140.300781 465.628906 147.339843 C 455.417969 152.941406 491.550781 222.050781 496.089843 231.710937 C 523.800781 290.640625 571.230469 482.289062 462.488281 488.789062 C 411.46875 491.847656 310.808593 457.621093 275.917969 419.210937 C 251.960937 392.839843 255.050781 396.359375 236.410156 366.519531 C 224.558593 347.570312 210.03125 331.480469 207.210937 334.480469"/>
<path fill-rule="evenodd" fill="rgb(22.410583%, 34.910583%, 4.699707%)" fill-opacity="1" d="M 217.988281 81.691406 C 0 164.621093 74.679687 322.507812 95.347656 387.847656 C 96.660156 391.980469 114.757812 444.417969 120.347656 445.347656 C 120.429687 445.371093 119.648437 440.648437 119.480469 440.148437 C 116.460937 431.097656 122.917969 415.589843 124.890625 406.980469 C 131.378906 378.609375 137.410156 350.148437 143.769531 321.75 C 156.039062 266.96875 199.089843 134.640625 217.988281 81.691406"/>
<path fill-rule="evenodd" fill="rgb(43.505859%, 64.646912%, 21.18988%)" fill-opacity="1" d="M 226.28125 89.347656 C 225.710937 90.347656 227.007812 92.558593 227.359375 93.691406 C 238.789062 130.789062 243.078125 171.667969 238.648437 210.121093 C 230.648437 279.648437 190.230469 332.480469 155.660156 390.730469 C 145.878906 407.21875 136.289062 424.46875 129.21875 442.328125 C 126.257812 449.808593 123.910156 457.808593 121.949219 465.628906 C 121.917969 465.769531 121.507812 467.769531 121.328125 467.699219 C 114.710937 465.050781 115.878906 371.359375 116.417969 361.398437 C 119.628906 302.070312 155.769531 97.289062 233.78125 81.691406"/>
<path fill-rule="evenodd" fill="rgb(22.410583%, 34.910583%, 4.699707%)" fill-opacity="1" d="M 242.398437 88.257812 C 239.558593 91.660156 248.757812 82.109375 251.941406 79.03125 C 257.570312 73.578125 262.988281 67.96875 268.800781 62.710937 C 285.910156 47.230469 304.800781 28.730469 326.320312 19.679687 C 373.089843 0 415.929687 45.550781 451.820312 68.179687 C 452.769531 68.78125 453.710937 69.371093 454.667969 69.960937 C 465.941406 76.820312 477.621093 82.558593 489.25 88.710937 C 489.640625 88.917969 493.21875 90.449219 493.050781 91.148437 C 492.917969 91.667969 490.398437 91.78125 490.03125 91.847656 C 475.328125 94.738281 461.160156 99.5 446.238281 101.558593 C 396.25 108.449219 348.328125 105.007812 298.890625 96.019531"/>
<path fill-rule="evenodd" fill="rgb(41.209412%, 37.597656%, 31.005859%)" fill-opacity="1" d="M 229.460937 105.179687 C 228.347656 105.820312 215.46875 96.460937 213.910156 95.640625 C 205.648437 91.328125 183.949219 86.941406 181.25 76.640625 C 177.25 61.371093 192.378906 33.828125 208.597656 47.769531 C 216.238281 54.328125 221.71875 63.839843 227.230469 72.140625 C 232.121093 79.5 243.378906 91.597656 241.691406 101.308593"/>

























































































































































































</svg>