<svg viewBox="0 0 130 160" xmlns="http://www.w3.org/2000/svg">
  <rect x="35" y="120" width="60" height="30" rx="8" fill="#8B5E3C" stroke="#5a3a1a" stroke-width="2"/>
  <line x1="65" y1="120" x2="65" y2="55" stroke="#4CAF50" stroke-width="7" stroke-linecap="round"/>
  <ellipse cx="44" cy="95" rx="22" ry="13" fill="#66BB6A" stroke="#388E3C" stroke-width="2" transform="rotate(-25 44 95)"/>
  <ellipse cx="86" cy="88" rx="22" ry="13" fill="#66BB6A" stroke="#388E3C" stroke-width="2" transform="rotate(25 86 88)"/>
  <circle cx="65" cy="24" r="10" fill="#FFD700" stroke="#F9A825" stroke-width="2"/>
  <ellipse cx="65" cy="10" rx="8" ry="12" fill="#FF7043"/>
  <ellipse cx="65" cy="38" rx="8" ry="12" fill="#FF7043"/>
  <ellipse cx="51" cy="17" rx="8" ry="12" fill="#FF7043" transform="rotate(-60 51 17)"/>
  <ellipse cx="79" cy="17" rx="8" ry="12" fill="#FF7043" transform="rotate(60 79 17)"/>
  <ellipse cx="51" cy="31" rx="8" ry="12" fill="#FF7043" transform="rotate(60 51 31)"/>
  <ellipse cx="79" cy="31" rx="8" ry="12" fill="#FF7043" transform="rotate(-60 79 31)"/>
</svg>
