<?xml version="1.0" encoding="utf-8"?>
<svg version="1.1" xmlns="http://www.w3.org/2000/svg" xmlns:xlink="http://www.w3.org/1999/xlink" x="0px" y="0px" viewBox="0 0 252.8 220.7" style="enable-background:new 0 0 1400 980;" xml:space="preserve" width="252.8" height="220.7">
<style type="text/css">
	.st0{fill:#C9D1D0;}
	.st1{opacity:0.3;}
	.st2{fill:#3F3F3F;}
	.st3{fill:#FF1E46;}
	.st4{fill:#6D0F05;}
	.st5{fill:#FFFFFF;}
	.st6{fill:#3F3F3F;stroke:#3F3F3F;stroke-width:8;stroke-linecap:round;stroke-linejoin:round;stroke-miterlimit:10;}
	.st7{fill:none;stroke:#3F3F3F;stroke-width:8;stroke-linecap:round;stroke-linejoin:round;stroke-miterlimit:10;}
	.st8{fill:#FFFFFF;stroke:#6D0F05;stroke-width:8;stroke-linecap:round;stroke-linejoin:round;stroke-miterlimit:10;}
	.st9{fill:none;stroke:#6D0F05;stroke-width:8;stroke-linecap:round;stroke-linejoin:round;stroke-miterlimit:10;}
	.st10{fill:#FF1E46;stroke:#6D0F05;stroke-width:8;stroke-linecap:round;stroke-linejoin:round;stroke-miterlimit:10;}
	.st11{fill:none;stroke:#3F3F3F;stroke-width:5;stroke-miterlimit:10;}
	.st12{fill:#ECBD6B;}
	.st13{fill:none;stroke:#E29367;stroke-width:5;stroke-miterlimit:10;}
	.st14{fill:#E29367;}
	.st15{fill:none;stroke:#3F3F3F;stroke-width:13;stroke-linecap:round;stroke-linejoin:round;stroke-miterlimit:10;}
	.st16{fill:#3F3F3F;stroke:#3F3F3F;stroke-width:7;stroke-linecap:round;stroke-linejoin:round;stroke-miterlimit:10;}
	.st17{fill:none;stroke:#6D0F05;stroke-width:13;stroke-linecap:round;stroke-linejoin:round;stroke-miterlimit:10;}
	.st18{fill:#9B8579;stroke:#6D0F05;stroke-width:7;stroke-linecap:round;stroke-linejoin:round;stroke-miterlimit:10;}
	.st19{fill:#C5E9EF;stroke:#6D0F05;stroke-width:8;stroke-linecap:round;stroke-linejoin:round;stroke-miterlimit:10;}
	.st20{fill:#C5E9EF;}
	.st21{fill:#3CE1E5;}
	.st22{fill:#AA092B;}
	.st23{fill:none;stroke:#3F3F3F;stroke-width:7;stroke-linecap:round;stroke-linejoin:round;stroke-miterlimit:10;}
	.st24{fill:#C5E9EF;stroke:#6D0F05;stroke-width:7;stroke-linecap:round;stroke-linejoin:round;stroke-miterlimit:10;}
	.st25{fill:#9B8579;}
	.st26{fill:none;stroke:#6D0F05;stroke-width:7;stroke-linecap:round;stroke-linejoin:round;stroke-miterlimit:10;}
</style>

<g id="medical_2">
	<g>
		<g class="st1">
			<path class="st2" d="M 130.9 216.7 c -0.5 0 -1.1 -0.1 -1.5 -0.3 c -1.2 -0.5 -29.3 -12.4 -57.9 -35.1 c -38.2 -30.3 -58.5 -65.4 -58.5 -101.4 c 0 -37.4 30.5 -67.9 67.9 -67.9 c 19.2 0 37.1 8 50 22 c 12.9 -14 30.8 -22 50 -22 c 37.4 0 67.9 30.5 67.9 67.9 c 0 34.6 -20.2 69.3 -58.4 100.1 c -28.5 23 -56.6 35.8 -57.8 36.3 C 132.1 216.5 131.5 216.7 130.9 216.7 z"/>
			<path class="st2" d="M 180.9 16 c 35.3 0 63.9 28.6 63.9 63.9 c 0 81.7 -113.9 132.8 -113.9 132.8 s -113.9 -47.8 -113.9 -132.8 c 0 -35.3 28.6 -63.9 63.9 -63.9 c 20.2 0 38.3 9.4 50 24.1 C 142.7 25.4 160.7 16 180.9 16 M 180.9 8 c -18.9 0 -36.7 7.3 -50 20.2 c -13.3 -13 -31.1 -20.2 -50 -20.2 c -39.6 0 -71.9 32.2 -71.9 71.9 c 0 21 6.4 41.5 19.1 61 c 9.9 15.3 23.7 29.9 40.9 43.6 c 29 23 57.6 35.1 58.8 35.6 c 1 0.4 2 0.6 3.1 0.6 c 1.1 0 2.2 -0.2 3.3 -0.7 c 1.2 -0.5 29.7 -13.5 58.7 -36.8 c 17.2 -13.9 30.9 -28.6 40.8 -43.7 c 12.7 -19.3 19.1 -39.4 19.1 -59.6 C 252.8 40.2 220.6 8 180.9 8 L 180.9 8 z"/>
			<polygon class="st2" points="151.9 93.4 151.9 64.2 110 64.2 110 93.4 80.8 93.4 80.8 135.3 110 135.3 110 164.5 151.9 164.5 151.9 135.3 181.1 135.3 181.1 93.4"/>
		</g>
		<g>
			<g>
				<g>
					<path class="st3" d="M 121.9 208.7 c -0.5 0 -1.1 -0.1 -1.5 -0.3 c -1.2 -0.5 -29.3 -12.4 -57.9 -35.1 c -38.2 -30.3 -58.5 -65.4 -58.5 -101.4 c 0 -37.4 30.5 -67.9 67.9 -67.9 c 19.2 0 37.1 8 50 22 c 12.9 -14 30.8 -22 50 -22 c 37.4 0 67.9 30.5 67.9 67.9 c 0 34.6 -20.2 69.3 -58.4 100.1 c -28.5 23 -56.6 35.8 -57.8 36.3 C 123.1 208.5 122.5 208.7 121.9 208.7 z"/>
					<path class="st4" d="M 171.9 8 c 35.3 0 63.9 28.6 63.9 63.9 c 0 81.7 -113.9 132.8 -113.9 132.8 s -113.9 -47.8 -113.9 -132.8 c 0 -35.3 28.6 -63.9 63.9 -63.9 c 20.2 0 38.3 9.4 50 24.1 C 133.7 17.4 151.7 8 171.9 8 M 171.9 0 c -18.9 0 -36.7 7.3 -50 20.2 c -13.3 -13 -31.1 -20.2 -50 -20.2 c -39.6 0 -71.9 32.2 -71.9 71.9 c 0 21 6.4 41.5 19.1 61 c 9.9 15.3 23.7 29.9 40.9 43.6 c 29 23 57.6 35.1 58.8 35.6 c 1 0.4 2 0.6 3.1 0.6 c 1.1 0 2.2 -0.2 3.3 -0.7 c 1.2 -0.5 29.7 -13.5 58.7 -36.8 c 17.2 -13.9 30.9 -28.6 40.8 -43.7 c 12.7 -19.3 19.1 -39.4 19.1 -59.6 C 243.8 32.2 211.6 0 171.9 0 L 171.9 0 z"/>
				</g>
				<polygon class="st5" points="142.9 85.4 142.9 56.2 101 56.2 101 85.4 71.8 85.4 71.8 127.3 101 127.3 101 156.5 142.9 156.5 142.9 127.3 172.1 127.3 172.1 85.4"/>
			</g>
		</g>
	</g>
	
	
	
	
	
	
	
</g>
</svg>