<?xml version="1.0" encoding="utf-8"?>
<!-- Generator: Adobe Illustrator 19.0.0, SVG Export Plug-In . SVG Version: 6.00 Build 0)  -->
<svg version="1.1" id="Layer_1" xmlns="http://www.w3.org/2000/svg" xmlns:xlink="http://www.w3.org/1999/xlink" x="0px" y="0px" viewBox="0 0 463 298" style="enable-background:new 0 0 1400 980;" xml:space="preserve" width="463" height="298">
<style type="text/css">
	.st0{fill:#453F76;}
	.st1{fill:#44AA92;}
	.st2{fill:#ED4545;}
	.st3{fill:#FFA161;}
	.st4{fill:#FFCA55;}
	.st5{fill:#FFFFFF;}
	.st6{fill:#D83D3D;}
	.st7{fill:#FFE36E;}
	.st8{fill:#FFD97B;}
	.st9{fill:#36967D;}
	.st10{fill:#FFFDF6;}
	.st11{fill:#FF9045;}
</style>
<g>
	<g>
		<path class="st4" d="M 398 144.1 c 0 -5 -4.1 -9.1 -9.1 -9.1 h -240.9 c -5 0 -9.1 4.1 -9.1 9.1 v 60.9 c 0 5 4.1 9.1 9.1 9.1 h 240.9 c 5 0 9.1 -4.1 9.1 -9.1 V 144.1 z"/>
		<path class="st0" d="M 453 106.1 c 0 -5 -4.1 -9.1 -9.1 -9.1 h -34.9 c -5 0 -9.1 4.1 -9.1 9.1 v 88.9 c 0 5 4.1 9.1 9.1 9.1 h 34.9 c 5 0 9.1 -4.1 9.1 -9.1 V 106.1 z"/>
		<path class="st8" d="M 398 124.1 c 0 -5 -4.1 -9.1 -9.1 -9.1 h -31.9 c -5 0 -9.1 4.1 -9.1 9.1 v 64.9 c 0 5 4.1 9.1 9.1 9.1 h 31.9 c 5 0 9.1 -4.1 9.1 -9.1 V 124.1 z"/>
		<path class="st2" d="M 463 216.1 c 0 -10 -8.1 -18.1 -18.1 -18.1 h -295.7 c -10 0 -18.1 8.1 -18.1 18.1 v 12.7 c 0 10 8.1 18.1 18.1 18.1 h 295.7 c 10 0 18.1 -8.1 18.1 -18.1 V 216.1 z"/>
		<circle class="st0" cx="201.10000000000002" cy="256.29999999999995" r="41.7"/>
		<circle class="st5" cx="201.10000000000002" cy="256.29999999999995" r="15.4"/>
		<g>
			<path class="st2" d="M 257.8 245.9 c 0 -29.6 -24 -44.4 -53.5 -44.4 s -53.5 14.8 -53.5 44.4 c 0 0.4 0 1.1 0 1.1 h -20 c 0 0 0 -0.4 0 -0.7 c 0 -40.6 32.9 -73.5 73.6 -73.5 c 40.6 0 73.6 32.8 73.6 73.5 c 0 0.3 0 0.7 0 0.7 h -20 C 257.8 247 257.8 246.3 257.8 245.9 z"/>
		</g>
		<circle class="st0" cx="352.70000000000016" cy="229.89999999999998" r="63.5"/>
		<circle class="st5" cx="352.70000000000016" cy="229.89999999999998" r="23.5"/>
		<g>
			<path class="st2" d="M 419.6 234.2 c 0 -36.8 -29.8 -66.7 -66.6 -66.7 c -36.8 0 -66.6 30 -66.6 66.8 c 0 0.5 0 0.7 0 1.7 h -24.9 c 0 -1 0 -0.9 0 -1.3 c 0 -50.5 41 -91.7 91.5 -91.7 c 50.5 0 91.5 41.2 91.5 91.7 c 0 0.3 0 0.2 0 1.2 h -24.9 C 419.6 235 419.6 234.7 419.6 234.2 z"/>
		</g>
	</g>
	<path class="st3" d="M 385 11.5 c 0 -6.3 -5.1 -11.5 -11.5 -11.5 h 0 c -6.3 0 -11.5 5.1 -11.5 11.5 v 115 c 0 6.3 5.1 11.5 11.5 11.5 h 0 c 6.3 0 11.5 -5.1 11.5 -11.5 V 11.5 z"/>
	<path class="st3" d="M 403 11.3 c 0 -6.3 -5.1 -11.3 -11.3 -11.3 h -171.3 c -6.3 0 -11.3 5.1 -11.3 11.3 v 0.3 c 0 6.3 5.1 11.3 11.3 11.3 h 171.3 c 6.3 0 11.3 -5.1 11.3 -11.3 V 11.3 z"/>
	<path class="st3" d="M 202.5 137.2 c -1.6 5.3 1.3 10.9 6.6 12.5 l 0 0 c 5.3 1.6 10.9 -1.3 12.5 -6.6 l 36.1 -116 c 1.6 -5.3 -1.3 -10.9 -6.6 -12.5 l 0 0 c -5.3 -1.6 -10.9 1.3 -12.5 6.6 L 202.5 137.2 z"/>
	<path class="st2" d="M 128.8 172.1 c 0 0 -7.3 78.8 -16.9 75.1 c -9.7 -3.6 -111.9 -27.2 -102.8 -34.5 c 9.1 -7.3 101.6 -54.4 119.7 -50.2"/>
	<path class="st0" d="M 179 149 c 2.2 4.5 7.7 6.3 12.2 4.1 l 0 0 c 4.5 -2.2 6.3 -7.7 4.1 -12.2 l -21 -42.2 c -2.2 -4.5 -7.7 -6.3 -12.2 -4.1 l 0 0 c -4.5 2.2 -6.3 7.7 -4.1 12.2 L 179 149 z"/>
	<path class="st0" d="M 97.4 185.5 c -2.9 4.1 -1.8 9.8 2.3 12.6 l 0 0 c 4.1 2.9 9.8 1.8 12.6 -2.3 l 60 -86.4 c 2.9 -4.1 1.8 -9.8 -2.3 -12.6 l 0 0 c -4.1 -2.9 -9.8 -1.8 -12.6 2.3 L 97.4 185.5 z"/>
</g>
</svg>
