<?xml version="1.0" encoding="utf-8"?>
<svg version="1.1" xmlns="http://www.w3.org/2000/svg" xmlns:xlink="http://www.w3.org/1999/xlink" x="0px" y="0px" viewBox="0 0 297.9 424.5" style="enable-background:new 0 0 1400 980;" xml:space="preserve" width="297.9" height="424.5">
<style type="text/css">
	.st0{fill:#C9D1D0;}
	.st1{opacity:0.3;}
	.st2{fill:#3F3F3F;}
	.st3{fill:#FF1E46;}
	.st4{fill:#6D0F05;}
	.st5{fill:#FFFFFF;}
	.st6{fill:#3F3F3F;stroke:#3F3F3F;stroke-width:8;stroke-linecap:round;stroke-linejoin:round;stroke-miterlimit:10;}
	.st7{fill:none;stroke:#3F3F3F;stroke-width:8;stroke-linecap:round;stroke-linejoin:round;stroke-miterlimit:10;}
	.st8{fill:#FFFFFF;stroke:#6D0F05;stroke-width:8;stroke-linecap:round;stroke-linejoin:round;stroke-miterlimit:10;}
	.st9{fill:none;stroke:#6D0F05;stroke-width:8;stroke-linecap:round;stroke-linejoin:round;stroke-miterlimit:10;}
	.st10{fill:#FF1E46;stroke:#6D0F05;stroke-width:8;stroke-linecap:round;stroke-linejoin:round;stroke-miterlimit:10;}
	.st11{fill:none;stroke:#3F3F3F;stroke-width:5;stroke-miterlimit:10;}
	.st12{fill:#ECBD6B;}
	.st13{fill:none;stroke:#E29367;stroke-width:5;stroke-miterlimit:10;}
	.st14{fill:#E29367;}
	.st15{fill:none;stroke:#3F3F3F;stroke-width:13;stroke-linecap:round;stroke-linejoin:round;stroke-miterlimit:10;}
	.st16{fill:#3F3F3F;stroke:#3F3F3F;stroke-width:7;stroke-linecap:round;stroke-linejoin:round;stroke-miterlimit:10;}
	.st17{fill:none;stroke:#6D0F05;stroke-width:13;stroke-linecap:round;stroke-linejoin:round;stroke-miterlimit:10;}
	.st18{fill:#9B8579;stroke:#6D0F05;stroke-width:7;stroke-linecap:round;stroke-linejoin:round;stroke-miterlimit:10;}
	.st19{fill:#C5E9EF;stroke:#6D0F05;stroke-width:8;stroke-linecap:round;stroke-linejoin:round;stroke-miterlimit:10;}
	.st20{fill:#C5E9EF;}
	.st21{fill:#3CE1E5;}
	.st22{fill:#AA092B;}
	.st23{fill:none;stroke:#3F3F3F;stroke-width:7;stroke-linecap:round;stroke-linejoin:round;stroke-miterlimit:10;}
	.st24{fill:#C5E9EF;stroke:#6D0F05;stroke-width:7;stroke-linecap:round;stroke-linejoin:round;stroke-miterlimit:10;}
	.st25{fill:#9B8579;}
	.st26{fill:none;stroke:#6D0F05;stroke-width:7;stroke-linecap:round;stroke-linejoin:round;stroke-miterlimit:10;}
</style>

<g id="medical_2">
	
	
	
	
	
	<g>
		<g class="st1">
			<path class="st2" d="M 178.9 420.4 c -14.5 0 -24.9 -0.2 -30.9 -0.5 c -5.5 0.3 -15.1 0.5 -28.5 0.5 c -24.3 0 -56.3 -0.6 -79 -1 c -15.2 -0.3 -27.5 -12.9 -27.5 -28.1 c 0 -9.2 0.2 -20.4 0.4 -33.3 c 1.6 -43.1 47.2 -49.4 74.4 -53.3 c 6.3 -0.9 11.8 -1.7 15.1 -2.7 c 8.1 -2.4 21.8 -15.6 20.8 -29.7 c -26.7 -18.4 -43.2 -59.7 -43.2 -108.5 c 0 -40 32.6 -72.6 72.6 -72.6 l 0.8 0 c 39.8 0.4 72 33.6 71.7 74 c -0.3 49.6 -16.2 89.5 -42.6 107.2 c -0.8 14.3 15.3 28.2 22.9 30.5 c 3.4 1 8.9 1.8 15.2 2.6 c 26.4 3.5 70.6 9.5 72.2 52.3 c 0.2 12.9 0.4 24.1 0.4 33.4 c 0 15.2 -12.3 27.8 -27.5 28.1 C 241.3 419.8 205.8 420.4 178.9 420.4 C 178.9 420.4 178.9 420.4 178.9 420.4 z"/>
			<path class="st2" d="M 153.2 95.2 c 0.3 0 0.5 0 0.8 0 c 37.9 0.4 68 32 67.8 70 c -0.3 51.7 -17.7 89.5 -42.4 104.9 c -2.7 17 15.7 33.7 25.5 36.6 c 18.6 5.6 82.7 1.9 84.6 51.3 c 0.3 14.3 0.4 25.1 0.4 33.2 c 0 13.1 -10.5 23.9 -23.6 24.1 c -23.4 0.5 -60 1.1 -87.3 1.1 c -13.4 0 -24.5 -0.1 -30.9 -0.5 c -5.8 0.4 -16.1 0.5 -28.4 0.5 c -24.6 0 -57.2 -0.6 -78.9 -1 c -13.1 -0.3 -23.6 -11 -23.5 -24.1 c 0 -8.1 0.1 -18.9 0.4 -33.3 c 1.9 -49.4 68 -46.6 86.7 -52.2 c 9.8 -2.9 26.1 -18.8 23.4 -35.8 c -25.2 -16.3 -42.9 -56.3 -42.9 -106.2 C 84.7 125.9 115.4 95.2 153.2 95.2 M 153.2 87.2 c -42.2 0 -76.6 34.3 -76.6 76.6 c 0 25.1 4.4 48.9 12.6 68.8 c 7.6 18.2 18.1 32.6 30.6 41.8 c -0.4 11.5 -12.2 22.1 -18 23.8 c -3.1 0.9 -8.4 1.7 -14.6 2.5 c -13.4 1.9 -31.9 4.5 -47.2 12 c -19.5 9.5 -29.8 24.7 -30.6 45.1 c 0 0 0 0.1 0 0.1 c -0.2 12.9 -0.4 24.1 -0.4 33.4 c 0 8.5 3.2 16.4 9.1 22.5 c 5.9 6 13.8 9.5 22.3 9.7 c 22.6 0.5 54.7 1 79.1 1 c 13.3 0 22.9 -0.2 28.5 -0.5 c 6.1 0.3 16.5 0.5 30.9 0.5 c 26.9 0 62.4 -0.6 87.5 -1.1 c 8.5 -0.2 16.4 -3.6 22.3 -9.6 c 5.9 -6 9.2 -14 9.1 -22.5 c 0 -9.3 -0.2 -20.5 -0.4 -33.3 c 0 0 0 -0.1 0 -0.1 c -0.8 -20.3 -10.7 -35.3 -29.6 -44.6 c -14.9 -7.3 -32.9 -9.7 -46 -11.5 c -6.1 -0.8 -11.5 -1.5 -14.6 -2.5 c -6.3 -1.9 -19.2 -13.4 -20 -24.6 c 26.5 -19.1 42.3 -59.5 42.6 -109.3 c 0.3 -42.6 -33.7 -77.6 -75.7 -78 C 153.8 87.2 153.5 87.2 153.2 87.2 L 153.2 87.2 z"/>
			<path class="st2" d="M 212.8 139.2 c -32 -37 -83.9 -37 -115.9 0 c -17.5 -20.2 -35 -40.4 -52.5 -60.7 c 61 -70.5 159.8 -70.5 220.8 0 C 247.8 98.7 230.3 119 212.8 139.2 z"/>
			<path class="st2" d="M 154.8 25.6 c 40 0 79.9 17.6 110.4 52.9 c -17.5 20.2 -35 40.4 -52.5 60.7 c -16 -18.5 -37 -27.7 -57.9 -27.7 s -41.9 9.2 -57.9 27.7 c -17.5 -20.2 -35 -40.4 -52.5 -60.7 C 74.9 43.3 114.9 25.6 154.8 25.6 M 154.8 17.6 c -21.5 0 -42.4 4.7 -62.2 14 c -20.4 9.6 -38.7 23.6 -54.3 41.7 c -2.6 3 -2.6 7.5 0 10.5 l 52.5 60.7 c 1.5 1.8 3.7 2.8 6.1 2.8 c 2.3 0 4.5 -1 6.1 -2.8 c 13.9 -16.1 32.4 -25 51.9 -25 c 19.5 0 38 8.9 51.9 25 c 1.5 1.8 3.7 2.8 6.1 2.8 c 2.3 0 4.5 -1 6.1 -2.8 l 52.5 -60.7 c 2.6 -3 2.6 -7.5 0 -10.5 c -15.6 -18.1 -33.9 -32.1 -54.3 -41.7 C 197.2 22.4 176.3 17.6 154.8 17.6 L 154.8 17.6 z"/>
			<polygon class="st6" points="184.8 61.3 184.8 80.2 164.3 80.2 164.3 100.7 145.4 100.7 145.4 80.2 124.9 80.2 124.9 61.3 145.4 61.3 145.4 40.9 164.3 40.9 164.3 61.3"/>
			<path class="st2" d="M 150.6 356.2 c -22.1 -13 -40.9 -30.9 -54.8 -52.4 c -2 -3 -6.8 -0.2 -4.8 2.8 c 14.5 22.3 33.9 40.9 56.9 54.4 C 150.8 362.8 153.7 358 150.6 356.2 z"/>
			<path class="st2" d="M 209.8 303.8 c -16.9 21.1 -37.1 39.1 -60.1 53.3 c -3.1 1.9 -0.2 6.7 2.8 4.8 c 23.3 -14.4 44.1 -32.7 61.2 -54.2 C 216 305 212.1 301 209.8 303.8 z"/>
			<path class="st2" d="M 45.1 406.5 c -0.5 4.5 -1 9.1 -1.5 13.6 c -0.4 3.6 5.2 3.5 5.6 0 c 0.5 -4.5 1 -9.1 1.5 -13.6 C 51.1 402.9 45.5 402.9 45.1 406.5 z"/>
			<path class="st2" d="M 244.8 407.7 c 0 -3.6 -5.6 -3.6 -5.6 0 c 0 3.9 0 7.9 0 11.8 c 0 3.6 5.6 3.6 5.6 0 C 244.8 415.6 244.8 411.6 244.8 407.7 z"/>
			<path class="st2" d="M 218.5 305.7 c -10.7 12.4 -21.9 24.4 -33.4 36 c -5.8 5.8 -11.6 11.5 -17.6 17.1 c -5.3 5 -11.6 11.3 -19.6 9.4 c -7.2 -1.7 -13.5 -8.1 -18.9 -12.8 c -5.6 -4.8 -10.9 -9.9 -16 -15.3 c -10.3 -10.9 -19.4 -22.9 -27.3 -35.7 c -1.9 -3.1 -6.7 -0.3 -4.8 2.8 c 8.4 13.6 18.2 26.4 29.3 38 c 5.8 6.1 12 11.8 18.5 17.2 c 5.6 4.7 11.8 10.2 19.3 11.5 c 6.8 1.1 12.8 -1.9 17.9 -6.1 c 6.7 -5.4 12.8 -11.8 18.9 -17.9 c 13.1 -13 25.7 -26.4 37.8 -40.4 C 224.8 306.9 220.9 303 218.5 305.7 z"/>
			<path class="st2" d="M 231.1 378.5 c -13.3 -0.4 -26.5 -0.8 -39.8 -1.3 c -3.6 -0.1 -3.6 5.5 0 5.6 c 13.3 0.4 26.5 0.8 39.8 1.3 C 234.7 384.2 234.7 378.6 231.1 378.5 z"/>
		</g>
		<g>
			<g>
				<g>
					<g>
						<path class="st22" d="M 169.9 412.4 c -14.5 0 -24.9 -0.2 -30.9 -0.5 c -5.5 0.3 -15.1 0.5 -28.5 0.5 c -24.3 0 -56.3 -0.6 -79 -1 c -15.2 -0.3 -27.5 -12.9 -27.5 -28.1 c 0 -9.2 0.2 -20.4 0.4 -33.3 c 1.6 -43.1 47.2 -49.4 74.4 -53.3 c 6.3 -0.9 11.8 -1.7 15.1 -2.7 c 8.1 -2.4 21.8 -15.6 20.8 -29.7 c -26.7 -18.4 -43.2 -59.7 -43.2 -108.5 c 0 -40 32.6 -72.6 72.6 -72.6 l 0.8 0 c 39.8 0.4 72 33.6 71.7 74 c -0.3 49.6 -16.2 89.5 -42.6 107.2 c -0.8 14.3 15.3 28.2 22.9 30.5 c 3.4 1 8.9 1.8 15.2 2.6 c 26.4 3.5 70.6 9.5 72.2 52.3 c 0.2 12.9 0.4 24.1 0.4 33.4 c 0 15.2 -12.3 27.8 -27.5 28.1 C 232.3 411.8 196.8 412.4 169.9 412.4 C 169.9 412.4 169.9 412.4 169.9 412.4 z"/>
						<path class="st4" d="M 144.2 87.2 c 0.3 0 0.5 0 0.8 0 c 37.9 0.4 68 32 67.8 70 c -0.3 51.7 -17.7 89.5 -42.4 104.9 c -2.7 17 15.7 33.7 25.5 36.6 c 18.6 5.6 82.7 1.9 84.6 51.3 c 0.3 14.3 0.4 25.1 0.4 33.2 c 0 13.1 -10.5 23.9 -23.6 24.1 c -23.4 0.5 -60 1.1 -87.3 1.1 c -13.4 0 -24.5 -0.1 -30.9 -0.5 c -5.8 0.4 -16.1 0.5 -28.4 0.5 c -24.6 0 -57.2 -0.6 -78.9 -1 c -13.1 -0.3 -23.6 -11 -23.5 -24.1 c 0 -8.1 0.1 -18.9 0.4 -33.3 c 1.9 -49.4 68 -46.6 86.7 -52.2 c 9.8 -2.9 26.1 -18.8 23.4 -35.8 c -25.2 -16.3 -42.9 -56.3 -42.9 -106.2 C 75.7 117.9 106.4 87.2 144.2 87.2 M 144.2 79.2 c -42.2 0 -76.6 34.3 -76.6 76.6 c 0 25.1 4.4 48.9 12.6 68.8 c 7.6 18.2 18.1 32.6 30.6 41.8 c -0.4 11.5 -12.2 22.1 -18 23.8 c -3.1 0.9 -8.4 1.7 -14.6 2.5 c -13.4 1.9 -31.9 4.5 -47.2 12 c -19.5 9.5 -29.8 24.7 -30.6 45.1 c 0 0 0 0.1 0 0.1 c -0.2 12.9 -0.4 24.1 -0.4 33.4 c 0 8.5 3.2 16.4 9.1 22.5 c 5.9 6 13.8 9.5 22.3 9.7 c 22.6 0.5 54.7 1 79.1 1 c 13.3 0 22.9 -0.2 28.5 -0.5 c 6.1 0.3 16.5 0.5 30.9 0.5 c 26.9 0 62.4 -0.6 87.5 -1.1 c 8.5 -0.2 16.4 -3.6 22.3 -9.6 c 5.9 -6 9.2 -14 9.1 -22.5 c 0 -9.3 -0.2 -20.5 -0.4 -33.3 c 0 0 0 -0.1 0 -0.1 c -0.8 -20.3 -10.7 -35.3 -29.6 -44.6 c -14.9 -7.3 -32.9 -9.7 -46 -11.5 c -6.1 -0.8 -11.5 -1.5 -14.6 -2.5 c -6.3 -1.9 -19.2 -13.4 -20 -24.6 c 26.5 -19.1 42.3 -59.5 42.6 -109.3 c 0.3 -42.6 -33.7 -77.6 -75.7 -78 C 144.8 79.2 144.5 79.2 144.2 79.2 L 144.2 79.2 z"/>
					</g>
				</g>
				<g>
					<g>
						<path class="st5" d="M 203.8 131.2 c -32 -37 -83.9 -37 -115.9 0 c -17.5 -20.2 -35 -40.4 -52.5 -60.7 c 61 -70.5 159.8 -70.5 220.8 0 C 238.8 90.7 221.3 111 203.8 131.2 z"/>
						<g>
							<path class="st4" d="M 145.8 17.6 c 40 0 79.9 17.6 110.4 52.9 c -17.5 20.2 -35 40.4 -52.5 60.7 c -16 -18.5 -37 -27.7 -57.9 -27.7 s -41.9 9.2 -57.9 27.7 c -17.5 -20.2 -35 -40.4 -52.5 -60.7 C 65.9 35.3 105.9 17.6 145.8 17.6 M 145.8 9.6 c -21.5 0 -42.4 4.7 -62.2 14 c -20.4 9.6 -38.7 23.6 -54.3 41.7 c -2.6 3 -2.6 7.5 0 10.5 l 52.5 60.7 c 1.5 1.8 3.7 2.8 6.1 2.8 c 2.3 0 4.5 -1 6.1 -2.8 c 13.9 -16.1 32.4 -25 51.9 -25 c 19.5 0 38 8.9 51.9 25 c 1.5 1.8 3.7 2.8 6.1 2.8 c 2.3 0 4.5 -1 6.1 -2.8 l 52.5 -60.7 c 2.6 -3 2.6 -7.5 0 -10.5 c -15.6 -18.1 -33.9 -32.1 -54.3 -41.7 C 188.2 14.4 167.3 9.6 145.8 9.6 L 145.8 9.6 z"/>
						</g>
					</g>
					<polygon class="st10" points="175.8 53.3 175.8 72.2 155.3 72.2 155.3 92.7 136.4 92.7 136.4 72.2 115.9 72.2 115.9 53.3 136.4 53.3 136.4 32.9 155.3 32.9 155.3 53.3"/>
				</g>
				<path class="st4" d="M 141.6 348.2 c -22.1 -13 -40.9 -30.9 -54.8 -52.4 c -2 -3 -6.8 -0.2 -4.8 2.8 c 14.5 22.3 33.9 40.9 56.9 54.4 C 141.8 354.8 144.7 350 141.6 348.2 z"/>
				<path class="st4" d="M 200.8 295.8 c -16.9 21.1 -37.1 39.1 -60.1 53.3 c -3.1 1.9 -0.2 6.7 2.8 4.8 c 23.3 -14.4 44.1 -32.7 61.2 -54.2 C 207 297 203.1 293 200.8 295.8 z"/>
				<path class="st4" d="M 36.1 398.5 c -0.5 4.5 -1 9.1 -1.5 13.6 c -0.4 3.6 5.2 3.5 5.6 0 c 0.5 -4.5 1 -9.1 1.5 -13.6 C 42.1 394.9 36.5 394.9 36.1 398.5 z"/>
				<path class="st4" d="M 235.8 399.7 c 0 -3.6 -5.6 -3.6 -5.6 0 c 0 3.9 0 7.9 0 11.8 c 0 3.6 5.6 3.6 5.6 0 C 235.8 407.6 235.8 403.6 235.8 399.7 z"/>
				<path class="st4" d="M 209.5 297.7 c -10.7 12.4 -21.9 24.4 -33.4 36 c -5.8 5.8 -11.6 11.5 -17.6 17.1 c -5.3 5 -11.6 11.3 -19.6 9.4 c -7.2 -1.7 -13.5 -8.1 -18.9 -12.8 c -5.6 -4.8 -10.9 -9.9 -16 -15.3 c -10.3 -10.9 -19.4 -22.9 -27.3 -35.7 c -1.9 -3.1 -6.7 -0.3 -4.8 2.8 c 8.4 13.6 18.2 26.4 29.3 38 c 5.8 6.1 12 11.8 18.5 17.2 c 5.6 4.7 11.8 10.2 19.3 11.5 c 6.8 1.1 12.8 -1.9 17.9 -6.1 c 6.7 -5.4 12.8 -11.8 18.9 -17.9 c 13.1 -13 25.7 -26.4 37.8 -40.4 C 215.8 298.9 211.9 295 209.5 297.7 z"/>
				<path class="st4" d="M 222.1 370.5 c -13.3 -0.4 -26.5 -0.8 -39.8 -1.3 c -3.6 -0.1 -3.6 5.5 0 5.6 c 13.3 0.4 26.5 0.8 39.8 1.3 C 225.7 376.2 225.7 370.6 222.1 370.5 z"/>
			</g>
		</g>
	</g>
	
	
</g>
</svg>