<?xml version="1.0" encoding="UTF-8"?>
<svg xmlns="http://www.w3.org/2000/svg" xmlns:xlink="http://www.w3.org/1999/xlink" width="536.917969" height="571.660156" viewBox="0 0 536.917969 571.660156">
















































































































<path fill-rule="evenodd" fill="rgb(42.405701%, 66.796875%, 14.501953%)" fill-opacity="1" d="M 291.921875 142.96875 C 238.773437 140.589844 174.144531 103 114.367187 133.109375 C 0 190.71875 44.242187 421.019531 120.128906 498.398437 C 191.972656 571.660156 217.476562 502.710937 284.613281 511.070312 C 315.605469 514.921875 376.484375 530.390625 400.917969 530.390625 C 465.046875 530.390625 512.328125 401.890625 520.582031 353.859375 C 536.917969 258.75 517.59375 145.089844 409.210937 121.648437 C 378.886719 115.082031 322.574219 141.5 291.921875 142.96875"/>
<path fill-rule="evenodd" fill="rgb(88.28125%, 98.4375%, 64.256287%)" fill-opacity="1" d="M 118.191406 191.398437 C 113.101562 194.339844 106.90625 204.230468 104.453125 208.589844 C 87.753906 238.289062 79.609375 268.988281 83.632812 303.109375 C 86.6875 329.039062 110.925781 340.582031 132.953125 325.960937 C 148.394531 315.71875 155.4375 308.609375 168.757812 295.832031 C 191.648437 273.871094 216.800781 250.191406 225.558593 218.488281 C 232.347656 193.910156 226.527343 162.808594 197.160156 156.921875 C 192.515625 155.988281 187.648437 155.929687 182.949219 156.539062 C 158.636719 159.71875 135.269531 174.410156 118.191406 191.398437"/>
<path fill-rule="evenodd" fill="rgb(18.406677%, 52.146912%, 3.100586%)" fill-opacity="1" d="M 284.953125 142.75 C 282.277343 141.691406 282.855469 133.570312 282.984375 131.628906 C 283.867187 118.140625 289.792969 104.621094 296.097656 92.890625 C 314.125 59.371094 341.210937 34.53125 374.226562 16.082031 C 379.199219 13.308594 384.296875 10.738281 389.445312 8.308594 C 392.203125 7 394.992187 5.769531 397.789062 4.558594 C 403.929687 1.890625 406.917969 0 407.25 6.78125 C 407.34375 8.660156 407.339843 10.539062 407.238281 12.421875 C 407.050781 15.859375 406.464843 19.25 405.835937 22.628906 C 404.792969 28.230468 403.453125 33.769531 401.792969 39.210937 C 399.117187 48 395.742187 56.582031 391.816406 64.878906 C 384.933593 79.429687 375.867187 92.5 364.25 103.671875 C 346.332031 120.910156 309.433593 137.789062 284.953125 142.75"/>
<path fill-rule="evenodd" fill="rgb(32.493591%, 65.039062%, 4.699707%)" fill-opacity="1" d="M 306.222656 125.339844 C 305.71875 123.898437 309.832031 117.21875 310.539062 116.5 C 315.929687 111.089844 321.308593 105.699218 326.429687 100.019531 C 330.519531 95.480468 334.605469 90.941406 338.65625 86.359375 C 341.53125 83.101562 344.398437 79.839844 347.160156 76.488281 C 356.097656 65.640625 363.199219 53.449218 372.164062 42.628906 C 373.40625 41.128906 374.699219 39.679687 376.046875 38.269531 C 385.644531 28.289062 381.621093 43.941406 379.632812 49.269531 C 378.457031 52.421875 377.226562 55.558594 375.832031 58.621094 C 373.730469 63.21875 371.289062 67.691406 368.578125 71.960937 C 363.707031 79.640625 357.773437 86.710937 352.011719 93.730468 C 342.941406 104.78125 317.589843 116.570312 306.222656 125.339844"/>
<path fill-rule="evenodd" fill="rgb(32.493591%, 65.039062%, 4.699707%)" fill-opacity="1" d="M 366.96875 29.121094 C 368.015625 28.699218 365.128906 29.761718 364.84375 29.929687 C 362.992187 31.039062 361.210937 32.289062 359.472656 33.558594 C 354.695312 37.070312 350.085937 40.910156 345.707031 44.898437 C 342.140625 48.148437 338.648437 51.480468 335.285156 54.941406 C 332.535156 57.769531 329.84375 60.671875 327.222656 63.621094 C 324.984375 66.148437 322.835937 68.75 320.78125 71.429687 C 315.015625 78.929687 310.105469 87.421875 307.570312 96.582031 C 307.042969 98.488281 305.148437 102.988281 306.925781 104.710937 C 308.484375 106.21875 311.40625 102.550781 312.167969 101.691406 C 316.214843 97.101562 319.710937 92.082031 323.371093 87.179687 C 331.429687 76.398437 339.34375 65.128906 348.226562 55 C 355.871093 46.28125 362.230469 39.960937 366.96875 29.121094"/>
<path fill-rule="evenodd" fill="rgb(32.493591%, 65.039062%, 4.699707%)" fill-opacity="1" d="M 223.320312 39.5 C 223.296875 39.460937 223.285156 39.449218 223.269531 39.410156"/>
<path fill-rule="evenodd" fill="rgb(27.098083%, 11.791992%, 5.099487%)" fill-opacity="1" d="M 219.6875 40.671875 C 219.441406 41.710937 215.617187 43.730468 214.777343 44.488281 C 211.425781 47.5 202.476562 56.5 205.132812 61.570312 C 207.722656 66.5 220.527343 66.871094 225.257812 69.480468 C 238.136719 76.589844 248.542969 87.371094 256.421875 99.699218 C 258.574219 103.070312 260.523437 106.570312 262.339843 110.121094 C 263.777343 112.929687 264.960937 115.839844 266.128906 118.761718 C 266.941406 120.800781 267.710937 122.851562 268.421875 124.921875 C 269.03125 126.710937 269.613281 128.5 270.171875 130.300781 C 271.652343 135.070312 278.746093 155.390625 287.117187 143.5 C 292.679687 135.589844 285.4375 121.96875 282.101562 114.730468 C 272.378906 93.621094 263.246093 69.46875 247.929687 51.660156 C 241.90625 44.648437 229.566406 36.160156 219.6875 40.671875"/>










































































































</svg>