<?xml version="1.0" encoding="utf-8"?>
<!-- Generator: Adobe Illustrator 19.0.0, SVG Export Plug-In . SVG Version: 6.00 Build 0)  -->
<svg version="1.1" id="Layer_1" xmlns="http://www.w3.org/2000/svg" xmlns:xlink="http://www.w3.org/1999/xlink" x="0px" y="0px" viewBox="0 0 500 295.6" style="enable-background:new 0 0 1400 980;" xml:space="preserve" width="500" height="295.6">
<style type="text/css">
	.st0{fill:#453F76;}
	.st1{fill:#44AA92;}
	.st2{fill:#ED4545;}
	.st3{fill:#FFA161;}
	.st4{fill:#FFCA55;}
	.st5{fill:#FFFFFF;}
	.st6{fill:#D83D3D;}
	.st7{fill:#FFE36E;}
	.st8{fill:#FFD97B;}
	.st9{fill:#36967D;}
	.st10{fill:#FFFDF6;}
	.st11{fill:#FF9045;}
</style>
<g>
	<g>
		<path class="st3" d="M 474.3 114.4 l -20.5 -63.2 c -2.4 -7.3 -10.4 -16.6 -17.8 -20.5 l -46.2 -24.9 c -7.4 -4 -20.4 -5.8 -28.9 -4.1 l -11.9 2.4 c 13.4 26.1 43.2 93.3 51.3 188.8 c 7.9 -1.2 16.8 -5.2 21.6 -9.9 l 46.1 -45 C 473.8 132.4 476.6 121.8 474.3 114.4 z"/>
		<path class="st4" d="M 268.9 20.3 c -0.6 0.1 -1.3 -0.1 -1.9 0.1 c 14.2 29.5 38.3 91.2 46.5 172.2 h 29.7 c -7.9 -86 -33.4 -148.6 -47.7 -178 L 268.9 20.3 z"/>
		<path class="st3" d="M 243.1 33.9 l -32.8 33 c -5.7 5.7 -10.2 16.6 -10.2 24.2 v 67.7 c 0 7.6 5.9 17.1 13.3 21.1 l 11.1 5.7 c 7.4 4 20.4 6.9 29.2 6.9 h 60 c -8.2 -81 -32.4 -142.7 -46.5 -172.2 C 258.8 22.6 248.4 28.6 243.1 33.9 z"/>
		<path class="st4" d="M 320.3 9.5 c 13.5 26.6 41.8 92.1 50.3 183.1 h 24.9 c 1.5 0 3.1 0.2 4.7 0 c -8.1 -95.5 -38 -162.7 -51.3 -188.8 L 320.3 9.5 z"/>
		<path class="st3" d="M 295.6 14.6 c 14.3 29.4 39.7 92 47.7 178 h 27.3 c -8.5 -91 -36.8 -156.6 -50.3 -183.2 L 295.6 14.6 z"/>
	</g>
	<g>
		<path class="st0" d="M 202 158.7 c 0 6.6 -5.3 11.9 -11.9 11.9 h -1.1 c -6.6 0 -11.9 -5.3 -11.9 -11.9 v -74.1 c 0 -6.6 5.3 -11.9 11.9 -11.9 h 1.1 c 6.6 0 11.9 5.3 11.9 11.9 V 158.7 z"/>
		<path class="st0" d="M 487 192.2 c 0 6.3 -5.1 11.4 -11.4 11.4 H 169.4 c -6.3 0 -11.4 -5.1 -11.4 -11.4 v -0.3 c 0 -6.3 5.1 -11.4 11.4 -11.4 h 306.3 c 6.3 0 11.4 5.1 11.4 11.4 V 192.2 z"/>
		<g>
			<path class="st2" d="M 182 123.6 H 47.3 c -18.8 0 -33.3 14.6 -33.3 33.4 V 201.6 h 168 V 123.6 z"/>
		</g>
		<path class="st2" d="M 66 132.6 v -75.6 c 0 -6.2 4.6 -12.4 10.8 -12.4 H 170 c 6.2 0 12 6.1 12 12.4 V 180.6"/>
		<path class="st1" d="M 500 214.7 c 0 6.6 -5.3 11.9 -11.9 11.9 H 11.9 c -6.6 0 -11.9 -5.3 -11.9 -11.9 v -1.1 c 0 -6.6 5.3 -11.9 11.9 -11.9 h 476.1 c 6.6 0 11.9 5.3 11.9 11.9 V 214.7 z"/>
		<path class="st5" d="M 168 112.1 c 0 6.3 -5.4 11.5 -11.7 11.5 h -63.4 c -6.3 0 -10.9 -5.3 -10.9 -11.5 v -38.8 c 0 -6.3 4.6 -11.6 10.9 -11.6 h 63.4 c 6.3 0 11.7 5.4 11.7 11.6 V 112.1 z"/>
		<rect x="14" y="158.59999999999997" class="st3" width="20" height="43"/>
		<circle class="st0" cx="114.29999999999995" cy="236.49999999999994" r="52.3"/>
		<circle class="st5" cx="114.29999999999995" cy="236.49999999999994" r="19.3"/>
		<g>
			<path class="st1" d="M 57.8 239.6 c 0 -30.3 24.5 -54.7 54.8 -54.7 c 30.3 0 54.8 24.4 54.8 54.6 c 0 0.4 0 1.1 0 1.1 h 20.5 c 0 0 0 -0.3 0 -0.6 c 0 -41.6 -33.7 -75.2 -75.3 -75.2 c -41.6 0 -75.3 33.5 -75.3 75.1 c 0 0.3 0 0.7 0 0.7 h 20.5 C 57.8 240.6 57.8 240 57.8 239.6 z"/>
		</g>
		<circle class="st0" cx="393.9" cy="243.3" r="52.3"/>
		<circle class="st5" cx="393.9" cy="243.3" r="19.3"/>
		<g>
			<path class="st1" d="M 337.3 246.5 c 0 -30.3 24.5 -54.7 54.8 -54.7 s 54.8 24.4 54.8 54.7 c 0 0.4 0 1.1 0 1.1 h 20.5 c 0 0 0 -0.4 0 -0.7 c 0 -41.6 -33.7 -75.2 -75.3 -75.2 c -41.6 0 -75.3 33.6 -75.3 75.2 c 0 0.3 0 0.7 0 0.7 h 20.5 C 337.4 247.6 337.3 246.9 337.3 246.5 z"/>
		</g>
	</g>
</g>
</svg>
