<?xml version="1.0" encoding="utf-8"?>
<!-- Generator: Adobe Illustrator 19.0.0, SVG Export Plug-In . SVG Version: 6.00 Build 0)  -->
<svg version="1.1" id="Layer_1" xmlns="http://www.w3.org/2000/svg" xmlns:xlink="http://www.w3.org/1999/xlink" x="0px" y="0px" viewBox="0 0 806.2 273.3" style="enable-background:new 0 0 1400 980;" xml:space="preserve" width="806.2" height="273.3">
<style type="text/css">
	.st0{fill:#453F76;}
	.st1{fill:#44AA92;}
	.st2{fill:#ED4545;}
	.st3{fill:#FFA161;}
	.st4{fill:#FFCA55;}
	.st5{fill:#FFFFFF;}
	.st6{fill:#D83D3D;}
	.st7{fill:#FFE36E;}
	.st8{fill:#FFD97B;}
	.st9{fill:#36967D;}
	.st10{fill:#FFFDF6;}
	.st11{fill:#FF9045;}
</style>
<g>
	<g>
		<rect x="106.6" y="224" class="st2" width="413" height="10"/>
		<g>
			<g>
				<rect x="661.6" y="93" class="st2" width="14" height="72"/>
				<rect x="698.6" y="67" class="st2" width="32" height="103"/>
				<polygon class="st2" points="700.4 99 729.1 99 738.7 62.2 690.8 62.7"/>
				<path class="st2" d="M 683.6 89.8 c 0 -6 -4.8 -10.8 -10.8 -10.8 h -1.5 c -6 0 -10.8 4.8 -10.8 10.8 v 7.5 c 0 6 4.8 10.8 10.8 10.8 h 1.5 c 6 0 10.8 -4.8 10.8 -10.8 V 89.8 z"/>
			</g>
			<path class="st1" d="M 501.6 237.4 c 0 6.2 4.5 11.6 10.7 11.6 h 284.5 c 6.2 0 9.4 -4.9 7.2 -10.6 l -38.5 -100.5 c -2.2 -5.7 -9.1 -10.9 -15.2 -10.9 H 512.3 c -6.2 0 -10.7 5.7 -10.7 11.9 V 237.4 z"/>
			<rect x="501.6" y="24.000000000000004" class="st1" width="132" height="167"/>
			<rect x="519.6" y="123" class="st9" width="98" height="112"/>
			<path class="st2" d="M 486.6 21.4 C 486.6 33 497.7 42 510.5 42 h 117.5 c 12.8 0 23.6 -9 23.6 -20.6 v -0.1 c 0 -11.5 -10.7 -21.3 -23.6 -21.3 H 510.5 c -12.8 0 -23.9 9.8 -23.9 21.3 V 21.4 z"/>
			<circle class="st0" cx="734.8000000000001" cy="244.3" r="26.6"/>
			<circle class="st0" cx="654.6" cy="244.3" r="26.6"/>
			<circle class="st0" cx="561.2" cy="229.5" r="41.5"/>
			<path class="st2" d="M 658.6 246.2 c 0 -1.2 -1 -2.2 -2.2 -2.2 h -95.5 c -1.2 0 -2.2 1 -2.2 2.2 v 4.5 c 0 1.2 1 2.2 2.2 2.2 h 95.5 c 1.2 0 2.2 -1 2.2 -2.2 V 246.2 z"/>
			<rect x="519.6" y="58" class="st10" width="98" height="65"/>
		</g>
		<g>
			<g>
				<polygon class="st11" points="247.8 152 457.3 152 451.5 179 253.7 179"/>
				<polygon class="st3" points="451.5 179 435.8 249 269.4 249 253.7 179"/>
			</g>
			<path class="st0" d="M 368.1 244.3 c 0 14.7 11.9 26.6 26.6 26.6 c 14.7 0 26.6 -11.9 26.6 -26.6 c 0 -14.7 -11.9 -26.6 -26.6 -26.6 C 380.1 217.7 368.1 229.6 368.1 244.3 z"/>
			<circle class="st0" cx="312.20000000000005" cy="244.3" r="26.6"/>
		</g>
		<g>
			<g>
				<polygon class="st4" points="0 155 209.5 155 203.7 182 5.9 182"/>
				<polygon class="st8" points="203.7 182 188 250 21.6 250 5.9 182"/>
			</g>
			<circle class="st0" cx="147" cy="246.7" r="26.6"/>
			<circle class="st0" cx="64.4" cy="246.7" r="26.6"/>
		</g>
	</g>
	<path class="st4" d="M 770.9 152.3 c 0 0 -23.4 26 21.4 55.6"/>
</g>
</svg>
