<?xml version="1.0" encoding="UTF-8"?>
<svg xmlns="http://www.w3.org/2000/svg" xmlns:xlink="http://www.w3.org/1999/xlink" width="495.125" height="564.003906" viewBox="0 0 495.125 564.003906">
















































































































































































<path fill-rule="evenodd" fill="rgb(58.789062%, 59.179688%, 18.406677%)" fill-opacity="1" d="M 52.871093 80.890625 C 56.316406 80.34375 47.886718 85.773437 45.480468 88.296875 C 40.375 93.644531 35.738281 99.320312 31.484374 105.371093 C 18.9375 123.222656 5.953124 145.1875 6.078124 167.65625 C 6.28125 203.058593 30.394531 232.632812 37.785156 266.414062 C 45.667968 302.449219 38.949218 339.996093 41.503906 376.480469 C 49.65625 493.023437 173.753906 564.003906 280.984374 528.679687 C 390.839843 492.492187 495.125 355.226562 433.183593 239.269531 C 400.59375 178.269531 346.730468 129.066406 282.078124 115.1875 C 203.589843 98.335937 140.796874 0 52.871093 80.890625"/>
<path fill-rule="evenodd" fill="rgb(92.96875%, 95.3125%, 56.054688%)" fill-opacity="1" d="M 70.183593 124.625 C 74.363281 102.113281 101.339843 76.09375 122.128906 70.816406 C 170.519531 58.535156 245.171874 136.277343 302.761718 153.78125 C 336.414062 164.007812 403.367187 198.871093 370.863281 243.9375 C 349.320312 273.808593 298.28125 278.839843 265.039062 280.007812 C 172.140624 283.269531 48.542968 241.140625 70.183593 124.625"/>
<path fill-rule="evenodd" fill="rgb(61.131287%, 34.910583%, 14.109802%)" fill-opacity="1" d="M 66.773437 85.742187 C 66.75 86.253906 60.039062 79.210937 59.035156 78.132812 C 54.304687 73.054687 49.660156 67.882812 44.808593 62.917969 C 39.46875 57.457031 33.847656 52.367187 27.683593 47.847656 C 19.136718 41.582031 0 36.285156 7.984374 22.644531 C 9.058593 20.8125 10.359374 19.058593 12.011718 17.703125 C 18.363281 12.488281 28.585937 15.800781 34.703124 19.597656 C 49.664062 28.882812 58.574218 45.414062 69.761718 58.617187 C 73.1875 62.65625 80.464843 68.433593 79.535156 74.246093 C 78.773437 78.992187 70.542968 84.0625 66.773437 85.742187"/>














































</svg>