<?xml version="1.0" encoding="utf-8"?>
<svg version="1.1" xmlns="http://www.w3.org/2000/svg" xmlns:xlink="http://www.w3.org/1999/xlink" x="0px" y="0px" viewBox="0 0 372.3 354.8" style="enable-background:new 0 0 1400 980;" xml:space="preserve" width="372.3" height="354.8">
<style type="text/css">
	.st0{fill:#C9D1D0;}
	.st1{opacity:0.3;}
	.st2{fill:#3F3F3F;}
	.st3{fill:#FF1E46;}
	.st4{fill:#6D0F05;}
	.st5{fill:#FFFFFF;}
	.st6{fill:#3F3F3F;stroke:#3F3F3F;stroke-width:8;stroke-linecap:round;stroke-linejoin:round;stroke-miterlimit:10;}
	.st7{fill:none;stroke:#3F3F3F;stroke-width:8;stroke-linecap:round;stroke-linejoin:round;stroke-miterlimit:10;}
	.st8{fill:#FFFFFF;stroke:#6D0F05;stroke-width:8;stroke-linecap:round;stroke-linejoin:round;stroke-miterlimit:10;}
	.st9{fill:none;stroke:#6D0F05;stroke-width:8;stroke-linecap:round;stroke-linejoin:round;stroke-miterlimit:10;}
	.st10{fill:#FF1E46;stroke:#6D0F05;stroke-width:8;stroke-linecap:round;stroke-linejoin:round;stroke-miterlimit:10;}
	.st11{fill:none;stroke:#3F3F3F;stroke-width:5;stroke-miterlimit:10;}
	.st12{fill:#ECBD6B;}
	.st13{fill:none;stroke:#E29367;stroke-width:5;stroke-miterlimit:10;}
	.st14{fill:#E29367;}
	.st15{fill:none;stroke:#3F3F3F;stroke-width:13;stroke-linecap:round;stroke-linejoin:round;stroke-miterlimit:10;}
	.st16{fill:#3F3F3F;stroke:#3F3F3F;stroke-width:7;stroke-linecap:round;stroke-linejoin:round;stroke-miterlimit:10;}
	.st17{fill:none;stroke:#6D0F05;stroke-width:13;stroke-linecap:round;stroke-linejoin:round;stroke-miterlimit:10;}
	.st18{fill:#9B8579;stroke:#6D0F05;stroke-width:7;stroke-linecap:round;stroke-linejoin:round;stroke-miterlimit:10;}
	.st19{fill:#C5E9EF;stroke:#6D0F05;stroke-width:8;stroke-linecap:round;stroke-linejoin:round;stroke-miterlimit:10;}
	.st20{fill:#C5E9EF;}
	.st21{fill:#3CE1E5;}
	.st22{fill:#AA092B;}
	.st23{fill:none;stroke:#3F3F3F;stroke-width:7;stroke-linecap:round;stroke-linejoin:round;stroke-miterlimit:10;}
	.st24{fill:#C5E9EF;stroke:#6D0F05;stroke-width:7;stroke-linecap:round;stroke-linejoin:round;stroke-miterlimit:10;}
	.st25{fill:#9B8579;}
	.st26{fill:none;stroke:#6D0F05;stroke-width:7;stroke-linecap:round;stroke-linejoin:round;stroke-miterlimit:10;}
</style>

<g id="medical_2">
	
	<g>
		<g class="st1">
			<path class="st6" d="M 299.8 35.6 v 88.2 h -43.7 v -72.8 h -131 v 72.8 h -43.7 V 35.6 c 0 -15.2 12.3 -27.6 27.6 -27.6 h 163.2 C 287.5 8 299.8 20.3 299.8 35.6 z"/>
			<path class="st2" d="M 47 350.8 c -18.8 0 -34 -15.3 -34 -34 v -198 c 0 -18.8 15.3 -34 34 -34 h 287.3 c 18.8 0 34 15.3 34 34 v 198 c 0 18.8 -15.3 34 -34 34 H 47 z"/>
			<path class="st2" d="M 334.3 88.8 c 16.6 0 30 13.4 30 30 v 198 c 0 16.6 -13.4 30 -30 30 H 47 c -16.6 0 -30 -13.4 -30 -30 v -198 c 0 -16.6 13.4 -30 30 -30 H 334.3 M 334.3 80.8 H 47 c -21 0 -38 17.1 -38 38 v 198 c 0 21 17.1 38 38 38 h 287.3 c 21 0 38 -17.1 38 -38 v -198 C 372.3 97.8 355.3 80.8 334.3 80.8 L 334.3 80.8 z"/>
			<line class="st7" x1="17" y1="237.60000000000002" x2="364.29999999999995" y2="237.60000000000002"/>
			<rect x="81.5" y="206.80000000000007" class="st6" width="24.3" height="61.7"/>
			<rect x="279.29999999999995" y="206.80000000000007" class="st6" width="24.3" height="61.7"/>
			<rect x="169.70000000000002" y="114.80000000000007" class="st2" width="41.9" height="100.3"/>
			<rect x="140.5" y="144" class="st2" width="100.3" height="41.9"/>
			<path class="st2" d="M 350.7 106.6 c 0 -1.2 -0.5 -2.4 -1.3 -3.2 c -0.8 -0.8 -2.1 -1.4 -3.2 -1.3 c -1.2 0.1 -2.4 0.4 -3.2 1.3 c -0.8 0.9 -1.4 2 -1.3 3.2 c 0 1 0.3 1.9 0.9 2.7 c 0 0.1 0.1 0.2 0.1 0.3 c 0.4 0.6 0.8 1.1 1.5 1.5 c 0.6 0.4 1.3 0.6 2.1 0.6 c 0.7 0 1.4 -0.2 2.1 -0.6 c 0.6 -0.4 1.1 -0.8 1.5 -1.5 c 0 0 0 -0.1 0.1 -0.1 C 350.3 108.7 350.7 107.5 350.7 106.6 z"/>
			<path class="st2" d="M 33.4 106.1 c -6.1 0 -6.1 9.5 0 9.5 C 39.5 115.6 39.5 106.1 33.4 106.1 z"/>
		</g>
		<g>
			<g>
				<path class="st8" d="M 290.8 27.6 v 88.2 h -43.7 v -72.8 h -131 v 72.8 h -43.7 V 27.6 c 0 -15.2 12.3 -27.6 27.6 -27.6 h 163.2 C 278.5 0 290.8 12.3 290.8 27.6 z"/>
				<g>
					<path class="st5" d="M 38 342.8 c -18.8 0 -34 -15.3 -34 -34 v -198 c 0 -18.8 15.3 -34 34 -34 h 287.3 c 18.8 0 34 15.3 34 34 v 198 c 0 18.8 -15.3 34 -34 34 H 38 z"/>
					<path class="st4" d="M 325.3 80.8 c 16.6 0 30 13.4 30 30 v 198 c 0 16.6 -13.4 30 -30 30 H 38 c -16.6 0 -30 -13.4 -30 -30 v -198 c 0 -16.6 13.4 -30 30 -30 H 325.3 M 325.3 72.8 H 38 c -21 0 -38 17.1 -38 38 v 198 c 0 21 17.1 38 38 38 h 287.3 c 21 0 38 -17.1 38 -38 v -198 C 363.3 89.8 346.3 72.8 325.3 72.8 L 325.3 72.8 z"/>
				</g>
				<line class="st9" x1="8.000000000000007" y1="229.60000000000002" x2="355.29999999999995" y2="229.60000000000002"/>
				<rect x="72.5" y="198.80000000000007" class="st10" width="24.3" height="61.7"/>
				<rect x="270.29999999999995" y="198.80000000000007" class="st10" width="24.3" height="61.7"/>
				<g>
					<rect x="160.70000000000002" y="106.80000000000007" class="st3" width="41.9" height="100.3"/>
					<rect x="131.5" y="136" class="st3" width="100.3" height="41.9"/>
				</g>
				<path class="st4" d="M 341.7 98.6 c 0 -1.2 -0.5 -2.4 -1.3 -3.2 c -0.8 -0.8 -2.1 -1.4 -3.2 -1.3 c -1.2 0.1 -2.4 0.4 -3.2 1.3 c -0.8 0.9 -1.4 2 -1.3 3.2 c 0 1 0.3 1.9 0.9 2.7 c 0 0.1 0.1 0.2 0.1 0.3 c 0.4 0.6 0.8 1.1 1.5 1.5 c 0.6 0.4 1.3 0.6 2.1 0.6 c 0.7 0 1.4 -0.2 2.1 -0.6 c 0.6 -0.4 1.1 -0.8 1.5 -1.5 c 0 0 0 -0.1 0.1 -0.1 C 341.3 100.7 341.7 99.5 341.7 98.6 z"/>
				<path class="st4" d="M 24.4 98.1 c -6.1 0 -6.1 9.5 0 9.5 C 30.5 107.6 30.5 98.1 24.4 98.1 z"/>
			</g>
		</g>
	</g>
	
	
	
	
	
	
</g>
</svg>