<?xml version="1.0" encoding="utf-8"?>
<svg version="1.1" xmlns="http://www.w3.org/2000/svg" xmlns:xlink="http://www.w3.org/1999/xlink" x="0px" y="0px" viewBox="0 0 152.7 542.3" style="enable-background:new 0 0 1400 980;" xml:space="preserve" width="152.7" height="542.3">
<style type="text/css">
	.st0{fill:#C9D1D0;}
	.st1{opacity:0.3;}
	.st2{fill:#3F3F3F;}
	.st3{fill:#FF1E46;}
	.st4{fill:#6D0F05;}
	.st5{fill:#FFFFFF;}
	.st6{fill:#3F3F3F;stroke:#3F3F3F;stroke-width:8;stroke-linecap:round;stroke-linejoin:round;stroke-miterlimit:10;}
	.st7{fill:none;stroke:#3F3F3F;stroke-width:8;stroke-linecap:round;stroke-linejoin:round;stroke-miterlimit:10;}
	.st8{fill:#FFFFFF;stroke:#6D0F05;stroke-width:8;stroke-linecap:round;stroke-linejoin:round;stroke-miterlimit:10;}
	.st9{fill:none;stroke:#6D0F05;stroke-width:8;stroke-linecap:round;stroke-linejoin:round;stroke-miterlimit:10;}
	.st10{fill:#FF1E46;stroke:#6D0F05;stroke-width:8;stroke-linecap:round;stroke-linejoin:round;stroke-miterlimit:10;}
	.st11{fill:none;stroke:#3F3F3F;stroke-width:5;stroke-miterlimit:10;}
	.st12{fill:#ECBD6B;}
	.st13{fill:none;stroke:#E29367;stroke-width:5;stroke-miterlimit:10;}
	.st14{fill:#E29367;}
	.st15{fill:none;stroke:#3F3F3F;stroke-width:13;stroke-linecap:round;stroke-linejoin:round;stroke-miterlimit:10;}
	.st16{fill:#3F3F3F;stroke:#3F3F3F;stroke-width:7;stroke-linecap:round;stroke-linejoin:round;stroke-miterlimit:10;}
	.st17{fill:none;stroke:#6D0F05;stroke-width:13;stroke-linecap:round;stroke-linejoin:round;stroke-miterlimit:10;}
	.st18{fill:#9B8579;stroke:#6D0F05;stroke-width:7;stroke-linecap:round;stroke-linejoin:round;stroke-miterlimit:10;}
	.st19{fill:#C5E9EF;stroke:#6D0F05;stroke-width:8;stroke-linecap:round;stroke-linejoin:round;stroke-miterlimit:10;}
	.st20{fill:#C5E9EF;}
	.st21{fill:#3CE1E5;}
	.st22{fill:#AA092B;}
	.st23{fill:none;stroke:#3F3F3F;stroke-width:7;stroke-linecap:round;stroke-linejoin:round;stroke-miterlimit:10;}
	.st24{fill:#C5E9EF;stroke:#6D0F05;stroke-width:7;stroke-linecap:round;stroke-linejoin:round;stroke-miterlimit:10;}
	.st25{fill:#9B8579;}
	.st26{fill:none;stroke:#6D0F05;stroke-width:7;stroke-linecap:round;stroke-linejoin:round;stroke-miterlimit:10;}
</style>

<g id="medical_2">
	
	
	
	
	
	
	
	<g>
		<g class="st1">
			<path class="st2" d="M 80.9 538.3 c -7.5 0 -13.6 -6.1 -13.6 -13.6 V 294.8 c 0 -7.5 6.1 -13.6 13.6 -13.6 s 13.6 6.1 13.6 13.6 v 229.9 C 94.5 532.2 88.4 538.3 80.9 538.3 z"/>
			<path class="st2" d="M 80.9 285.2 c 5.3 0 9.6 4.3 9.6 9.6 v 229.9 c 0 5.3 -4.3 9.6 -9.6 9.6 s -9.6 -4.3 -9.6 -9.6 V 294.8 C 71.3 289.5 75.6 285.2 80.9 285.2 M 80.9 277.2 c -9.7 0 -17.6 7.9 -17.6 17.6 v 229.9 c 0 9.7 7.9 17.6 17.6 17.6 s 17.6 -7.9 17.6 -17.6 V 294.8 C 98.5 285.1 90.6 277.2 80.9 277.2 L 80.9 277.2 z"/>
			<path class="st2" d="M 58.6 479.6 c -1.6 0 -3.1 -1 -3.7 -2.5 c -0.3 -0.6 -0.5 -1.3 -0.7 -2.1 l -39.8 -128.1 c -0.9 -2.8 -1.3 -5.7 -1.3 -8.7 V 40.4 c 0 -15.7 12.4 -28.5 27.6 -28.5 h 80.5 c 15.2 0 27.6 12.8 27.6 28.5 v 297.8 c 0 3 -0.5 6 -1.4 8.8 l -40.7 128.2 c -0.2 0.6 -0.4 1.2 -0.6 1.8 c -0.6 1.5 -2.1 2.5 -3.7 2.5 H 58.6 z"/>
			<path class="st2" d="M 121.1 16 c 13 0 23.6 10.9 23.6 24.4 v 297.8 c 0 2.6 -0.4 5.2 -1.2 7.6 L 102.9 474.1 c -0.2 0.5 -0.4 1.1 -0.6 1.6 h -43.7 c -0.2 -0.6 -0.4 -1.1 -0.6 -1.7 l -39.8 -128.1 c -0.8 -2.4 -1.1 -4.9 -1.1 -7.5 V 40.4 c 0 -13.5 10.6 -24.4 23.6 -24.4 H 121.1 M 121.1 8 h -80.5 c -17.4 0 -31.6 14.6 -31.6 32.4 v 297.8 c 0 3.3 0.5 6.7 1.5 9.9 l 39.8 128.2 c 0.3 0.9 0.5 1.7 0.9 2.4 c 1.2 3 4.2 5 7.4 5 h 43.7 c 3.3 0 6.2 -2 7.4 -5.1 c 0.3 -0.7 0.5 -1.4 0.7 -2 l 40.7 -128.3 c 1 -3.3 1.6 -6.6 1.6 -10 V 40.4 C 152.7 22.5 138.6 8 121.1 8 L 121.1 8 z"/>
			<path class="st2" d="M 55.2 252.6 c -2.2 0 -4 -1.8 -4 -4 V 60 c 0 -2.2 1.8 -4 4 -4 h 51.4 c 2.2 0 4 1.8 4 4 V 248.6 c 0 2.2 -1.8 4 -4 4 H 55.2 z"/>
			<path class="st2" d="M 106.6 60 V 248.6 h -51.4 V 60 H 106.6 M 106.6 52 h -51.4 c -4.4 0 -8 3.6 -8 8 V 248.6 c 0 4.4 3.6 8 8 8 h 51.4 c 4.4 0 8 -3.6 8 -8 V 60 C 114.6 55.6 111 52 106.6 52 L 106.6 52 z"/>
			<rect x="55.19999999999993" y="156.39999999999998" class="st2" width="51.4" height="92.2"/>
		</g>
		<g>
			<g>
				<g>
					<path class="st25" d="M 71.9 530.3 c -7.5 0 -13.6 -6.1 -13.6 -13.6 V 286.8 c 0 -7.5 6.1 -13.6 13.6 -13.6 s 13.6 6.1 13.6 13.6 v 229.9 C 85.5 524.2 79.4 530.3 71.9 530.3 z"/>
					<path class="st4" d="M 71.9 277.2 c 5.3 0 9.6 4.3 9.6 9.6 v 229.9 c 0 5.3 -4.3 9.6 -9.6 9.6 s -9.6 -4.3 -9.6 -9.6 V 286.8 C 62.3 281.5 66.6 277.2 71.9 277.2 M 71.9 269.2 c -9.7 0 -17.6 7.9 -17.6 17.6 v 229.9 c 0 9.7 7.9 17.6 17.6 17.6 s 17.6 -7.9 17.6 -17.6 V 286.8 C 89.5 277.1 81.6 269.2 71.9 269.2 L 71.9 269.2 z"/>
				</g>
				<g>
					<path class="st5" d="M 49.6 471.6 c -1.6 0 -3.1 -1 -3.7 -2.5 c -0.3 -0.6 -0.5 -1.3 -0.7 -2.1 l -39.8 -128.1 c -0.9 -2.8 -1.3 -5.7 -1.3 -8.7 V 32.4 c 0 -15.7 12.4 -28.5 27.6 -28.5 h 80.5 c 15.2 0 27.6 12.8 27.6 28.5 v 297.8 c 0 3 -0.5 6 -1.4 8.8 l -40.7 128.2 c -0.2 0.6 -0.4 1.2 -0.6 1.8 c -0.6 1.5 -2.1 2.5 -3.7 2.5 H 49.6 z"/>
					<g>
						<path class="st4" d="M 112.1 8 c 13 0 23.6 10.9 23.6 24.4 v 297.8 c 0 2.6 -0.4 5.2 -1.2 7.6 L 93.9 466.1 c -0.2 0.5 -0.4 1.1 -0.6 1.6 h -43.7 c -0.2 -0.6 -0.4 -1.1 -0.6 -1.7 l -39.8 -128.1 c -0.8 -2.4 -1.1 -4.9 -1.1 -7.5 V 32.4 c 0 -13.5 10.6 -24.4 23.6 -24.4 H 112.1 M 112.1 0 h -80.5 c -17.4 0 -31.6 14.6 -31.6 32.4 v 297.8 c 0 3.3 0.5 6.7 1.5 9.9 l 39.8 128.2 c 0.3 0.9 0.5 1.7 0.9 2.4 c 1.2 3 4.2 5 7.4 5 h 43.7 c 3.3 0 6.2 -2 7.4 -5.1 c 0.3 -0.7 0.5 -1.4 0.7 -2 l 40.7 -128.3 c 1 -3.3 1.6 -6.6 1.6 -10 V 32.4 C 143.7 14.5 129.6 0 112.1 0 L 112.1 0 z"/>
					</g>
				</g>
				<g>
					<path class="st20" d="M 46.2 244.6 c -2.2 0 -4 -1.8 -4 -4 V 52 c 0 -2.2 1.8 -4 4 -4 h 51.4 c 2.2 0 4 1.8 4 4 V 240.6 c 0 2.2 -1.8 4 -4 4 H 46.2 z"/>
					<path class="st4" d="M 97.6 52 V 240.6 h -51.4 V 52 H 97.6 M 97.6 44 h -51.4 c -4.4 0 -8 3.6 -8 8 V 240.6 c 0 4.4 3.6 8 8 8 h 51.4 c 4.4 0 8 -3.6 8 -8 V 52 C 105.6 47.6 102 44 97.6 44 L 97.6 44 z"/>
				</g>
				<rect x="46.19999999999993" y="148.39999999999998" class="st3" width="51.4" height="92.2"/>
			</g>
		</g>
	</g>
</g>
</svg>