<?xml version="1.0" encoding="utf-8"?>
<!-- Generator: Adobe Illustrator 19.0.0, SVG Export Plug-In . SVG Version: 6.00 Build 0)  -->
<svg version="1.1" id="Layer_1" xmlns="http://www.w3.org/2000/svg" xmlns:xlink="http://www.w3.org/1999/xlink" x="0px" y="0px" viewBox="0 0 617.3 190.2" style="enable-background:new 0 0 1400 980;" xml:space="preserve" width="617.3" height="190.2">
<style type="text/css">
	.st0{fill:#453F76;}
	.st1{fill:#44AA92;}
	.st2{fill:#ED4545;}
	.st3{fill:#FFA161;}
	.st4{fill:#FFCA55;}
	.st5{fill:#FFFFFF;}
	.st6{fill:#D83D3D;}
	.st7{fill:#FFE36E;}
	.st8{fill:#FFD97B;}
	.st9{fill:#36967D;}
	.st10{fill:#FFFDF6;}
	.st11{fill:#FF9045;}
</style>
<g>
	<g>
		<g>
			<path class="st2" d="M 23.2 171.7 c 3.6 4.5 575.1 0 575.1 0 c 1.1 0 1.8 -0.9 1.8 -2 v -90.7 c 0 -1.1 -0.6 -2.5 -1.5 -3.1 c 0 0 -46.1 -28.7 -112.9 -29.6 c -132.3 -1.6 -338.7 1.5 -394 34.6 C 54.6 103.1 0 143 23.2 171.7 z"/>
		</g>
		<path class="st2" d="M 254.4 71.8 l 107.1 -66.3 c 5.2 -3.2 14.4 -5.5 20.5 -5 c 0 0 101.8 -0.1 131.4 71.3"/>
		<path class="st5" d="M 298.7 60.5 l 70.5 -43.7 c 3.4 -2.1 9.5 -3.6 13.5 -3.3 c 0 0 86.5 6.7 86.5 46.9"/>
		<path class="st2" d="M 546.5 119.7 c -2 7.4 2.4 15 9.8 17 l 0 0 c 7.4 2 15 -2.4 17 -9.8 l 19.9 -75.1 c 2 -7.4 -2.4 -15 -9.8 -17 l 0 0 c -7.4 -2 -15 2.4 -17 9.8 L 546.5 119.7 z"/>
		<path class="st2" d="M 575.7 29.8 c -3.6 -0.9 -8.1 4.4 -9.9 11.8 l 0 0 c -1.9 7.4 -0.5 14.2 3.1 15.1 l 36.6 9.2 c 3.6 0.9 8.1 -4.4 9.9 -11.8 l 0 0 c 1.9 -7.4 0.5 -14.2 -3.1 -15.1 L 575.7 29.8 z"/>
		<rect x="133.10000000000002" y="147.69999999999993" class="st6" width="467" height="26"/>
		<path class="st0" d="M 65.7 143 c 0 26.1 21.1 47.2 47.2 47.2 c 26.1 0 47.2 -21.1 47.2 -47.2 c 0 -26.1 -21.1 -47.2 -47.2 -47.2 C 86.8 95.8 65.7 117 65.7 143 z"/>
		<path class="st5" d="M 79.5 143 c 0 18.5 15 33.4 33.4 33.4 c 18.5 0 33.5 -15 33.5 -33.4 c 0 -18.5 -15 -33.4 -33.5 -33.4 C 94.4 109.6 79.5 124.5 79.5 143 z"/>
		<path class="st0" d="M 465.4 143 c 0 26.1 21.1 47.2 47.2 47.2 c 26.1 0 47.2 -21.1 47.2 -47.2 c 0 -26.1 -21.1 -47.2 -47.2 -47.2 C 486.5 95.8 465.4 117 465.4 143 z"/>
		<path class="st5" d="M 478.3 143 c 0 18.9 15.3 34.2 34.2 34.2 c 18.9 0 34.2 -15.3 34.2 -34.2 c 0 -18.9 -15.3 -34.2 -34.2 -34.2 C 493.6 108.8 478.3 124.1 478.3 143 z"/>
	</g>
	<polygon class="st6" points="297.1 147.7 427.1 147.7 469 60.7 297.1 60.7"/>
	<path class="st7" d="M 73.6 92.4 c 0 0 9 35.7 -37.4 30.2 C 36.1 122.6 50.5 103.8 73.6 92.4 z"/>
	<rect x="583.1" y="99.69999999999993" class="st7" width="17" height="39"/>
</g>
</svg>
