<?xml version="1.0" encoding="utf-8"?>
<!-- Generator: Adobe Illustrator 19.0.0, SVG Export Plug-In . SVG Version: 6.00 Build 0)  -->
<svg version="1.1" id="Layer_1" xmlns="http://www.w3.org/2000/svg" xmlns:xlink="http://www.w3.org/1999/xlink" x="0px" y="0px" viewBox="0 0 501.4 226.2" style="enable-background:new 0 0 1400 980;" xml:space="preserve" width="501.4" height="226.2">
<style type="text/css">
	.st0{fill:#453F76;}
	.st1{fill:#44AA92;}
	.st2{fill:#ED4545;}
	.st3{fill:#FFA161;}
	.st4{fill:#FFCA55;}
	.st5{fill:#FFFFFF;}
	.st6{fill:#D83D3D;}
	.st7{fill:#FFE36E;}
	.st8{fill:#FFD97B;}
	.st9{fill:#36967D;}
	.st10{fill:#FFFDF6;}
	.st11{fill:#FF9045;}
</style>
	<g>
	<g>
		<g>
			<path class="st8" d="M 52.6 148.1 H 491.3 V 4 c 0 0 -385.1 -4 -398.7 7.8 C 52.4 46.6 52.6 148.1 52.6 148.1 z"/>
			<g>
				<path class="st8" d="M 11.3 103 c 0 -14.8 13.2 -27.9 27.9 -27.9 h 18.7 c 14.8 0 26.3 13.1 26.3 27.9 V 148.1 h -73 V 103 z"/>
			</g>
			<path class="st4" d="M 0 164.1 c 0 8.9 6.7 16 15 16 h 471.4 c 8.3 0 15 -7.1 15 -16 l 0 0 c 0 -8.9 -6.7 -16 -15 -16 H 15 C 6.7 148.1 0 155.2 0 164.1 L 0 164.1 z"/>
			<circle class="st0" cx="102.79999999999995" cy="182" r="44.2"/>
			<circle class="st5" cx="102.79999999999995" cy="182" r="23.2"/>
			<circle class="st0" cx="417.39999999999986" cy="182" r="44.2"/>
			<circle class="st5" cx="417.39999999999986" cy="182" r="23.6"/>
		</g>
		<rect x="11.299999999999955" y="101.1" class="st3" width="18" height="47"/>
		<rect x="118.29999999999995" y="19.1" class="st5" width="359" height="65"/>
		<g>
			<g>
				<rect x="185.29999999999995" y="12.100000000000001" class="st8" width="11" height="80"/>
			</g>
			<g>
				<rect x="258.29999999999995" y="12.100000000000001" class="st8" width="10" height="80"/>
			</g>
			<g>
				<rect x="330.29999999999995" y="12.100000000000001" class="st8" width="11" height="80"/>
			</g>
			<g>
				<rect x="403.29999999999995" y="12.100000000000001" class="st8" width="10" height="80"/>
			</g>
		</g>
		<path class="st5" d="M 107.3 20 c 0 0 -7.9 0.9 -11.3 4.6 c -10.5 11.6 -17 25.5 -21.3 59.5 H 107.3 V 20 z"/>
	</g>
		<g>
		<rect x="73.29999999999995" y="101.1" class="st4" width="404" height="23"/>
	</g>
</g>
</svg>
