<?xml version="1.0" encoding="UTF-8"?>
<svg xmlns="http://www.w3.org/2000/svg" xmlns:xlink="http://www.w3.org/1999/xlink" width="579.730469" height="590.183594" viewBox="0 0 579.730469 590.183594">


<path fill-rule="evenodd" fill="rgb(25.488281%, 23.901367%, 20.410156%)" fill-opacity="1" d="M 454.3125 55.425781 C 414.773437 61.402344 377.433594 113.8125 345.84375 135.277344 C 314.523437 156.5625 284.5 179.816406 252.8125 200.515625 C 186.84375 243.601562 121.570313 276.660156 87.011719 352.914062 C 29.621094 479.570312 156.78125 590.183594 279.8125 571.472656 C 429.113281 548.769531 451.613281 422.46875 505 308.925781 C 524.511719 267.441406 559.59375 220.164062 568.050781 175.089844 C 579.730469 112.839844 553.011719 18.765625 454.3125 55.425781"/>
<path fill-rule="evenodd" fill="rgb(65.429688%, 74.414062%, 39.208984%)" fill-opacity="1" d="M 428.351563 36.660156 C 388.8125 42.636718 347.8125 79.453125 316.222656 100.921875 C 284.902344 122.207031 254.882813 145.457031 223.191406 166.15625 C 157.222656 209.242187 91.953125 242.304687 57.390625 318.558594 C 0 445.214844 127.160156 555.824218 250.191406 537.113281 C 399.492187 514.410156 421.992187 388.113281 475.382813 274.566406 C 494.890625 233.082031 530.792969 194.960937 543.34375 150.851562 C 565.203125 74.035156 527.050781 0 428.351563 36.660156"/>
<path fill-rule="evenodd" fill="rgb(97.264099%, 96.875%, 65.429688%)" fill-opacity="1" d="M 412.992187 50.648437 C 379.191406 54.414062 342.570313 87.050781 314.722656 105.722656 C 287.101563 124.238281 260.480469 144.660156 232.570313 162.605468 C 174.492187 199.960937 117.511719 227.945312 84.320313 297.878906 C 29.191406 414.042968 131.183594 523.730468 236.34375 511.894531 C 363.953125 497.53125 389.5 380.082031 440.570313 276.039062 C 459.222656 238.023437 491.59375 203.925781 504.492187 163.125 C 526.953125 92.070312 498.460937 20.835937 412.992187 50.648437"/>
<path fill-rule="evenodd" fill="rgb(56.443787%, 25.097656%, 10.205078%)" fill-opacity="1" d="M 191.59375 214.132812 C 89.640625 287.507812 131.953125 460.164062 277.863281 399.476562 C 324.5625 380.050781 365.972656 317.847656 360.121094 265.136718 C 352.800781 199.226562 283.25 148.15625 191.59375 214.132812"/>
<path fill-rule="evenodd" fill="rgb(98.4375%, 80.46875%, 50.193787%)" fill-opacity="1" d="M 191.332031 254.449218 C 164.023437 284.050781 176.441406 367.136718 224.320313 323.914062 C 261.011719 290.785156 270.363281 196.167968 191.332031 254.449218"/>


























































































































































































































</svg>